<?xml version="1.0" standalone="no"?>
<!DOCTYPE svg PUBLIC "-//W3C//DTD SVG 20010904//EN"
 "http://www.w3.org/TR/2001/REC-SVG-20010904/DTD/svg10.dtd">
<svg version="1.0" xmlns="http://www.w3.org/2000/svg"
 width="896.000000pt" height="896.000000pt" viewBox="0 0 896.000000 896.000000"
 preserveAspectRatio="xMidYMid meet">

<g transform="translate(0.000000,896.000000) scale(0.100000,-0.100000)"
fill="#000000" stroke="none">
<path d="M3087 8058 c-24 -18 -30 -19 -38 -7 -7 11 -9 11 -9 -3 0 -10 -4 -18
-10 -18 -5 0 -10 7 -10 17 0 13 -4 11 -20 -7 -11 -13 -20 -28 -21 -34 0 -6 -7
3 -14 19 -13 27 -14 27 -15 8 0 -13 -5 -23 -10 -23 -6 0 -10 -6 -9 -12 2 -23
-13 -58 -26 -58 -15 0 -58 -41 -65 -61 -7 -25 -8 -162 0 -214 16 -103 52 -260
62 -266 6 -4 7 -19 3 -38 -5 -25 -11 -30 -28 -26 -17 4 -27 -3 -42 -28 -18
-28 -27 -33 -75 -38 -122 -13 -294 -141 -354 -263 -22 -44 -32 -84 -39 -155
-14 -134 -10 -189 18 -279 41 -129 41 -151 8 -213 -17 -30 -40 -71 -52 -92
l-23 -37 28 -66 c35 -83 117 -174 156 -174 17 0 29 -7 33 -19 13 -42 46 -71
80 -71 19 0 37 -4 40 -10 3 -5 21 -10 40 -10 41 0 45 -6 45 -62 -1 -80 -2 -88
-11 -82 -18 11 -8 -6 31 -51 23 -26 55 -75 72 -109 17 -33 48 -83 69 -110 22
-27 39 -55 39 -62 0 -8 7 -14 15 -14 18 0 20 -16 3 -23 -7 -3 -2 -6 11 -6 13
-1 29 -9 36 -18 11 -15 8 -19 -27 -35 -22 -10 -44 -18 -50 -18 -17 0 3 21 30
32 37 14 10 23 -31 9 l-32 -11 25 20 c28 22 24 25 -14 11 -27 -11 -54 9 -40
30 5 9 0 10 -20 5 -19 -5 -26 -3 -26 8 0 21 -40 57 -54 49 -6 -4 -5 1 3 10 11
14 11 20 1 32 -10 12 -16 13 -29 3 -14 -12 -15 -11 -2 5 13 17 17 15 60 -26
55 -52 94 -77 118 -76 11 0 4 7 -18 17 -20 10 -34 23 -31 30 2 6 -1 12 -8 12
-6 0 -8 -5 -4 -12 4 -6 3 -8 -3 -5 -10 6 -27 63 -24 80 0 4 -3 7 -9 7 -5 0
-10 7 -10 15 0 8 -4 15 -8 15 -5 0 -15 11 -22 25 -7 13 -22 27 -32 31 -14 4
-17 12 -13 27 3 12 -6 3 -20 -20 -30 -47 -68 -68 -143 -77 -52 -7 -53 -7 -46
19 5 22 3 25 -22 26 -23 1 -19 3 19 14 27 7 66 12 88 11 21 -2 39 1 39 5 0 5
-5 9 -11 9 -5 0 -7 5 -4 10 4 6 10 8 15 5 14 -9 32 33 27 63 -4 25 -4 25 -6
-5 0 -17 -6 -35 -13 -39 -8 -5 -9 -2 -5 10 8 21 -3 107 -13 101 -4 -2 -15 4
-25 15 -10 11 -22 17 -26 14 -5 -3 -8 5 -6 18 1 17 -3 22 -15 20 -12 -2 -16 2
-12 13 3 8 2 15 -4 15 -6 0 -23 13 -39 28 -15 16 -34 27 -41 24 -6 -2 -12 4
-12 13 0 9 -10 25 -22 35 -18 14 -26 16 -37 7 -12 -9 -13 -9 -7 1 7 11 -12 18
-38 13 -5 -1 -6 5 -3 13 4 11 -1 18 -18 22 -14 3 -22 11 -18 17 3 6 1 7 -5 3
-7 -4 -12 -14 -12 -22 0 -8 -4 -14 -10 -14 -5 0 -7 7 -4 15 4 8 -1 17 -10 21
-9 3 -13 11 -10 16 4 6 -4 5 -16 -2 -24 -13 -43 -4 -20 10 9 6 -2 8 -31 6 -25
-2 -61 3 -78 10 -29 12 -32 17 -26 44 6 29 6 29 -34 25 -23 -2 -41 0 -41 5 0
9 -39 25 -52 22 -5 -1 -8 3 -8 9 0 5 -5 7 -10 4 -5 -3 -10 -1 -10 5 0 7 -7 9
-15 6 -9 -3 -18 0 -20 7 -7 15 -55 19 -55 3 -1 -6 -8 3 -17 19 l-17 30 -7 -48
c-9 -58 -22 -77 -18 -27 4 57 0 90 -12 90 -6 0 -9 -7 -5 -15 3 -8 1 -15 -4
-15 -6 0 -10 -5 -10 -11 0 -5 5 -7 10 -4 12 7 12 -2 1 -30 -7 -16 -9 -14 -14
13 -9 43 -25 40 -33 -5 -4 -21 -12 -45 -19 -53 -6 -8 -22 -36 -34 -61 -12 -26
-30 -54 -41 -64 -18 -16 -20 -16 -40 3 -24 22 -19 42 10 42 10 0 22 5 25 11 4
6 13 8 20 5 8 -3 18 7 24 26 9 25 7 35 -10 59 -20 29 -39 31 -39 3 0 -8 -10
-14 -25 -14 -24 0 -36 24 -16 32 4 2 12 14 16 27 6 19 4 23 -8 18 -29 -11 -49
27 -42 77 4 26 11 48 14 51 8 5 78 -41 102 -67 9 -10 19 -15 23 -11 3 3 6 0 6
-8 0 -8 6 -4 16 9 17 25 15 56 -4 58 -6 1 -16 2 -21 3 -10 1 -7 33 4 51 3 6
13 10 21 10 9 0 14 11 14 31 l0 31 -60 -7 c-43 -5 -60 -4 -60 5 0 6 4 9 8 6 4
-2 14 0 22 5 11 8 5 9 -22 7 -20 -2 -34 0 -32 4 3 4 14 8 25 8 10 0 19 5 19
10 0 6 -17 8 -42 5 -41 -4 -41 -4 -10 5 17 6 47 14 65 19 32 9 31 9 -13 10
-83 2 -95 45 -24 85 26 14 56 26 68 26 27 0 51 -40 60 -98 8 -55 32 -112 45
-112 6 0 11 18 11 40 0 22 -4 40 -10 40 -5 0 -7 7 -3 16 5 13 7 13 14 2 7 -10
9 -9 9 4 0 9 -5 18 -12 20 -8 3 -7 14 5 38 9 18 17 46 17 62 0 16 6 31 15 34
8 4 15 11 15 16 0 6 -7 7 -16 4 -13 -5 -15 -1 -10 19 4 17 3 24 -6 23 -7 -2
-12 2 -13 9 0 18 -88 112 -99 106 -5 -3 -6 -1 -2 5 7 12 -19 42 -39 42 -7 0
-15 9 -18 20 -3 13 -14 20 -29 20 -13 0 -29 5 -36 12 -9 9 -12 9 -12 -2 0 -13
-2 -13 -10 0 -8 13 -10 13 -10 -2 0 -19 -23 -15 -52 9 -14 13 -24 10 -77 -16
-62 -32 -87 -39 -76 -21 3 6 4 10 1 10 -3 0 -14 -17 -25 -37 -11 -21 -20 -32
-21 -25 0 6 -12 12 -26 12 -21 0 -25 -4 -21 -20 5 -20 -23 -37 -42 -26 -5 3
-7 -3 -4 -14 4 -16 0 -20 -21 -20 -19 0 -26 -5 -26 -20 0 -11 -6 -20 -14 -20
-9 0 -12 -7 -9 -21 4 -12 0 -25 -7 -29 -12 -7 -11 -13 0 -37 8 -15 14 -32 15
-38 0 -5 4 -15 8 -22 16 -26 36 -93 27 -93 -16 0 -10 -81 8 -130 26 -68 37
-82 64 -82 24 0 27 -6 38 -62 6 -33 18 -75 25 -93 l14 -32 -47 -32 c-26 -18
-68 -51 -93 -75 -34 -31 -65 -48 -116 -63 -59 -18 -78 -29 -120 -74 -67 -71
-95 -145 -95 -252 0 -52 6 -95 16 -120 15 -34 15 -43 2 -74 -7 -20 -24 -73
-36 -119 -20 -72 -30 -93 -83 -155 -123 -147 -154 -209 -212 -427 -18 -69 -50
-163 -70 -210 -20 -47 -43 -105 -52 -130 -8 -25 -20 -51 -26 -59 -6 -7 -10
-27 -9 -45 2 -17 -13 -78 -32 -136 -22 -70 -31 -110 -25 -121 4 -9 34 -27 66
-40 32 -12 69 -29 81 -38 19 -12 25 -12 32 -1 4 7 12 10 18 6 6 -3 23 4 39 17
15 13 40 27 56 31 24 6 27 11 27 51 0 24 -4 47 -10 50 -6 3 -10 0 -10 -7 -1
-7 -7 5 -15 26 -12 33 -12 41 1 53 17 18 18 49 2 60 -7 4 -24 6 -38 4 -14 -2
-22 0 -18 5 4 4 3 13 -3 21 -9 10 -7 13 8 13 10 0 25 -6 32 -13 10 -10 12 -7
9 15 -2 15 5 34 16 47 11 12 16 21 12 21 -14 0 117 159 193 233 103 101 200
264 251 422 12 39 35 86 50 106 16 20 44 64 63 99 l35 63 16 -30 c8 -17 39
-56 68 -88 29 -32 53 -62 54 -69 1 -6 25 -60 54 -121 105 -221 126 -271 137
-312 10 -41 9 -43 -11 -43 -12 0 -31 -7 -43 -15 -21 -15 -22 -22 -18 -113 4
-100 16 -152 36 -152 6 0 -3 -17 -20 -38 -16 -21 -35 -50 -42 -65 -7 -15 -20
-29 -31 -32 -10 -4 -18 -12 -18 -20 0 -7 -35 -42 -79 -78 -146 -121 -269 -298
-317 -457 -62 -203 -87 -272 -110 -299 -34 -40 -44 -74 -51 -165 -3 -45 -12
-94 -20 -110 -9 -16 -12 -39 -8 -53 9 -39 -15 -176 -34 -191 -24 -19 -23 -367
2 -555 18 -130 24 -308 14 -387 -2 -19 -5 -41 -5 -47 -1 -8 -16 -13 -34 -13
-18 -1 -44 -8 -58 -16 -17 -11 -19 -13 -5 -9 11 4 36 9 55 11 l35 5 -35 -20
c-19 -11 -43 -23 -52 -27 -9 -3 -19 -13 -22 -21 -5 -11 3 -9 28 6 39 25 65 28
47 8 -6 -8 -9 -16 -6 -18 2 -3 -33 -44 -78 -92 l-82 -87 45 -1 c60 -2 74 1 82
14 6 9 8 9 8 0 0 -6 14 -13 32 -15 17 -2 34 -9 36 -17 3 -8 0 -11 -5 -8 -5 3
-10 -3 -10 -14 -2 -18 0 -18 17 3 10 13 22 19 27 15 4 -5 0 -13 -10 -18 -9 -6
-17 -14 -17 -20 0 -5 10 0 22 11 l23 21 -34 31 c-23 21 -29 33 -21 38 7 4 10
12 6 18 -3 6 2 9 11 7 10 -1 17 -8 16 -14 -2 -6 2 -11 7 -11 10 0 14 27 10 65
-2 19 -1 18 18 -3 16 -18 27 -22 44 -17 23 8 23 8 -2 -14 -14 -13 -20 -20 -13
-17 6 4 14 2 18 -4 3 -5 1 -10 -5 -10 -7 0 -8 -6 -1 -18 8 -14 6 -19 -5 -19
-7 0 -14 4 -14 9 0 4 -5 8 -10 8 -6 0 -8 -11 -4 -28 6 -26 6 -26 -9 -7 -9 11
-17 26 -17 33 0 17 -20 15 -20 -2 0 -8 6 -16 14 -19 19 -8 26 -65 9 -72 -9 -3
-11 0 -7 8 5 8 2 8 -9 -2 -9 -7 -14 -17 -11 -22 3 -5 1 -9 -5 -9 -5 0 -12 4
-15 9 -7 10 -31 9 -42 -2 -11 -11 -52 -8 -56 4 -2 6 -19 12 -38 14 -19 2 -37
4 -40 5 -3 1 -13 1 -23 1 -9 -1 -20 5 -23 14 -6 13 -8 14 -15 3 -7 -10 -9 -11
-9 0 0 8 -5 10 -12 6 -8 -5 -9 -2 -5 9 9 25 -17 21 -49 -6 -19 -17 -27 -34
-28 -60 -1 -20 -5 -40 -10 -44 -7 -8 -12 -9 -53 -11 -15 -1 -23 -8 -23 -19 0
-10 4 -14 8 -8 9 12 32 18 32 8 0 -8 8 -9 110 -13 92 -3 290 10 320 20 14 5
72 11 130 14 58 3 112 7 121 9 29 5 49 29 48 56 0 22 -2 23 -8 7 -7 -19 -8
-19 -30 3 -12 12 -25 20 -30 17 -4 -3 -8 1 -8 7 0 7 9 14 20 15 11 0 30 10 41
22 20 20 20 22 4 34 -10 7 -18 25 -18 40 0 16 -4 25 -10 21 -6 -4 -8 11 -3 42
3 26 6 68 7 93 1 44 0 45 -31 45 -18 1 -33 -3 -33 -8 0 -10 -36 9 -60 33 -17
17 -16 17 36 16 36 -1 54 -5 54 -13 0 -7 4 -13 9 -13 10 0 23 41 27 85 10 124
91 412 125 446 48 48 69 134 67 269 -1 58 -3 90 -5 73 -2 -18 -8 -33 -12 -33
-4 0 -5 19 -1 42 10 67 1 128 -19 129 -10 0 -11 2 -3 6 16 6 16 33 0 33 -9 0
-8 4 2 10 13 8 13 13 2 31 -12 18 -11 24 8 44 15 16 21 33 18 55 -3 29 1 33
32 44 26 8 37 19 44 44 12 42 154 173 256 235 68 42 112 76 336 258 38 31 83
63 100 72 30 15 33 15 70 -10 58 -38 148 -128 218 -218 66 -86 156 -211 156
-218 0 -4 83 -134 98 -152 5 -6 28 -48 51 -93 25 -47 48 -79 54 -75 6 3 7 1 3
-6 -4 -6 2 -24 13 -39 11 -16 22 -39 26 -53 5 -21 1 -27 -20 -37 -14 -7 -31
-12 -38 -12 -7 0 -20 -14 -29 -30 -9 -16 -34 -38 -55 -47 -55 -25 -147 -88
-192 -131 -36 -34 -40 -36 -43 -18 -4 25 -42 33 -65 15 -17 -15 -149 -187
-174 -228 -9 -14 -19 -39 -23 -56 -4 -16 -13 -37 -20 -45 -21 -25 -108 -222
-113 -257 -4 -25 1 -42 22 -72 15 -22 24 -44 21 -50 -4 -5 -17 -52 -31 -103
-87 -330 -110 -405 -167 -528 -38 -81 -63 -117 -142 -204 -19 -21 -38 -53 -42
-70 -8 -36 -50 -150 -69 -186 -7 -14 -32 -61 -54 -105 -23 -44 -55 -96 -70
-116 -41 -51 -70 -108 -66 -130 2 -10 0 -19 -6 -19 -5 0 -7 -14 -4 -32 8 -41
14 -50 28 -41 9 5 9 3 0 -8 -10 -12 -8 -18 8 -32 11 -10 28 -18 38 -20 11 -2
26 -9 35 -16 17 -14 51 -7 41 8 -3 5 -1 12 4 15 10 7 24 -22 16 -34 -3 -4 4
-10 15 -13 11 -3 20 -11 20 -17 0 -8 -7 -9 -18 -5 -34 14 -74 16 -66 2 5 -6 0
-5 -11 3 -10 8 -20 14 -22 13 -1 -2 -13 -3 -25 -2 -22 0 -22 1 -3 9 13 6 3 8
-33 5 -33 -3 -51 -1 -47 5 9 15 -25 60 -41 53 -9 -3 -14 2 -14 13 0 16 -2 17
-10 4 -8 -13 -10 -13 -10 2 0 9 8 21 17 27 23 13 2 39 -30 36 -36 -4 -37 -4
-37 -20 0 -8 -5 -15 -10 -15 -7 0 -7 6 -1 19 12 22 3 35 -15 20 -7 -6 -10 -18
-8 -27 5 -14 4 -14 -6 1 -9 14 -9 22 1 33 10 12 10 17 -1 27 -10 10 -12 9 -7
-5 7 -20 -10 -27 -43 -17 -16 4 -19 7 -7 8 9 1 17 5 17 11 0 5 -6 7 -14 4 -8
-3 -16 2 -19 13 -5 17 -5 17 -6 0 0 -10 -8 -26 -17 -35 -15 -15 -16 -13 -10
19 5 25 4 30 -3 19 -7 -10 -11 -11 -11 -2 0 6 -4 12 -10 12 -5 0 -10 -7 -10
-16 0 -14 -3 -14 -15 -4 -11 9 -12 16 -5 25 8 9 6 14 -4 18 -10 4 -13 -2 -11
-21 1 -15 4 -31 6 -37 2 -5 0 -11 -6 -12 -5 -1 -9 5 -9 13 1 8 -2 14 -7 14 -5
0 -9 -4 -9 -9 0 -6 -9 -9 -19 -8 -11 0 -17 5 -15 9 3 5 9 6 14 3 5 -3 14 4 20
15 9 17 8 20 -7 20 -10 0 -24 -9 -31 -20 -17 -28 -50 -26 -54 3 l-3 22 -7 -23
c-5 -18 -1 -25 15 -32 12 -5 17 -9 10 -9 -28 -2 -43 13 -43 40 0 16 -5 29 -11
29 -7 0 -9 -9 -5 -23 4 -19 1 -23 -21 -25 -15 -1 -32 5 -39 15 -13 17 -14 17
-8 1 3 -10 2 -18 -4 -18 -6 0 -12 6 -15 13 -4 9 -7 9 -18 0 -11 -11 -10 -13 5
-13 10 0 14 -4 10 -12 -4 -6 -3 -8 4 -4 6 3 14 1 18 -5 4 -7 3 -9 -4 -5 -6 3
-13 2 -17 -4 -10 -17 -20 -11 -31 18 -14 36 -39 38 -41 3 -2 -25 -2 -25 7 -3
11 27 15 28 17 3 1 -11 -5 -22 -14 -25 -18 -7 -35 2 -28 15 9 14 -37 29 -52
17 -7 -5 -17 -7 -23 -3 -5 3 -10 1 -10 -4 0 -6 10 -12 23 -12 30 -2 -58 -17
-103 -18 -29 -1 -36 3 -37 20 -2 18 0 19 15 7 15 -12 16 -11 3 5 -9 12 -17 14
-26 7 -6 -5 -16 -6 -21 -2 -4 4 -2 -1 5 -10 12 -16 11 -18 -10 -19 l-24 -1 25
-8 c23 -7 23 -8 3 -9 -12 -1 -24 -7 -26 -13 -3 -7 -6 -3 -6 10 -1 12 -4 21 -8
20 -16 -4 -53 14 -48 23 4 5 1 9 -4 9 -14 0 -14 -13 0 -27 9 -9 7 -12 -9 -10
-11 0 -19 4 -17 7 2 3 0 12 -6 20 -7 13 -9 12 -9 -1 0 -9 -7 -20 -16 -23 -20
-8 -24 -8 -23 2 4 25 -2 32 -20 23 -10 -6 -21 -7 -25 -3 -4 3 -4 -1 0 -11 6
-18 20 -23 26 -9 2 4 10 0 19 -9 11 -11 14 -22 8 -30 -7 -11 -9 -10 -9 4 0 20
-36 24 -43 5 -4 -10 -6 -10 -6 0 -1 6 -6 12 -12 12 -5 0 -7 -5 -4 -10 3 -6 1
-10 -4 -10 -6 0 -11 6 -11 13 0 7 -4 6 -10 -4 -8 -14 -22 -16 -82 -12 -40 3
-70 2 -67 -1 3 -4 22 -7 42 -8 21 -1 34 -5 30 -11 -3 -6 -1 -7 5 -3 7 4 12 1
12 -8 0 -24 60 -22 61 2 0 15 1 16 7 0 6 -13 18 -16 62 -13 36 2 48 0 35 -5
-11 -5 -34 -9 -50 -9 -24 -1 -31 -6 -31 -21 0 -13 7 -20 19 -20 10 0 16 4 13
9 -6 9 44 35 52 26 4 -3 -4 -8 -17 -12 -16 -4 -19 -8 -10 -14 27 -16 -5 -24
-102 -26 -61 -1 -99 2 -99 8 0 6 -7 4 -15 -5 -12 -11 -15 -40 -15 -126 l0
-111 2618 4 c2575 4 2620 4 2782 25 91 11 199 29 240 40 41 11 93 22 115 25
41 7 105 35 139 62 16 12 18 20 10 42 -15 45 -84 72 -287 113 -49 10 -91 20
-94 23 -3 3 12 9 33 12 82 14 195 54 201 71 6 19 -63 52 -160 78 -90 23 -137
32 -384 77 -120 22 -156 38 -90 40 17 1 167 2 332 4 197 1 315 6 343 14 44 12
57 31 20 31 l-21 0 23 25 c14 15 21 31 17 45 -3 11 -1 17 4 14 6 -4 9 15 7 47
-3 53 -4 54 -53 82 -27 15 -62 33 -77 40 -16 6 -28 15 -28 19 0 4 -6 8 -13 8
-7 0 -26 12 -42 28 -16 15 -34 26 -39 24 -4 -2 -6 4 -3 12 4 9 2 18 -3 21 -10
6 -53 93 -55 110 0 6 -4 15 -7 21 -13 20 -81 268 -85 311 -4 33 -1 44 11 49 9
3 16 11 16 16 0 6 -6 5 -15 -2 -13 -11 -15 -8 -15 21 0 24 6 38 21 47 17 11
19 19 14 51 -5 30 -2 41 15 56 20 18 21 18 45 -5 31 -29 34 -6 3 27 l-21 23
34 43 c48 61 246 240 296 266 12 6 34 11 49 11 53 0 394 321 394 372 0 9 12
29 26 43 18 18 25 34 23 54 -4 30 37 85 101 137 19 15 30 22 23 15 -13 -16 -6
-44 10 -34 6 3 7 1 3 -5 -4 -6 -14 -8 -24 -5 -9 3 -14 3 -10 -2 4 -4 0 -14
-10 -21 -16 -13 -16 -13 1 -14 10 0 15 -5 12 -11 -4 -6 2 -13 13 -16 11 -3 23
-11 26 -19 7 -17 -6 -18 -22 -2 -6 6 -15 8 -19 3 -5 -4 -2 -10 5 -12 24 -9 11
-23 -15 -17 -16 4 -25 3 -21 -1 5 -5 -10 -16 -32 -26 -22 -10 -40 -21 -40 -24
0 -10 98 19 233 69 72 28 178 48 189 38 6 -7 -66 -92 -78 -92 -4 0 -26 -13
-50 -30 -37 -24 -48 -28 -63 -18 -14 9 -26 7 -57 -10 -62 -34 -134 -62 -159
-62 -42 0 -68 -32 -70 -86 -2 -27 2 -58 8 -69 6 -11 10 -26 9 -33 -2 -6 2 -12
8 -12 5 0 10 -11 10 -25 0 -14 8 -29 20 -35 11 -6 18 -15 15 -20 -11 -17 27
-62 47 -57 35 10 67 -84 43 -129 -13 -25 -13 -30 1 -45 9 -11 13 -26 9 -42 -4
-14 -2 -28 4 -32 6 -3 8 -11 5 -17 -4 -6 -3 -13 2 -17 13 -9 44 -71 44 -87 0
-9 5 -12 10 -9 6 3 10 -1 10 -9 0 -8 9 -20 20 -26 11 -6 19 -14 18 -18 -6 -17
51 -75 98 -103 69 -39 96 -38 129 6 32 41 30 76 -9 170 -31 72 -34 175 -11
293 22 106 27 115 36 63 8 -41 39 -92 39 -64 0 7 -4 14 -9 17 -5 3 -12 23 -15
43 -4 21 -10 47 -13 58 -4 16 -3 17 7 8 7 -6 19 -33 27 -60 l13 -48 -4 44 c-3
24 -14 57 -26 74 -16 21 -19 32 -11 40 6 6 11 18 11 27 0 9 11 27 25 40 14 13
25 29 25 35 0 17 106 100 175 137 33 18 99 49 147 69 47 20 122 59 167 87 78
50 82 52 153 52 96 0 186 27 306 90 127 68 245 157 400 304 23 23 81 65 128
94 95 58 157 105 222 168 46 44 93 79 241 177 92 61 122 89 109 103 -4 4 -24
-2 -45 -12 -33 -16 -59 -18 -193 -16 -247 4 -349 24 -625 122 -211 75 -334
150 -484 294 -135 131 -329 381 -318 410 31 80 40 127 28 152 -6 14 -20 28
-31 31 -11 3 -20 11 -20 18 0 26 53 132 92 183 35 48 61 97 82 156 6 18 10 16
44 -16 78 -73 190 -140 287 -171 28 -9 119 -28 203 -42 139 -22 188 -36 245
-66 10 -6 27 -7 37 -4 11 4 34 -4 57 -18 45 -28 97 -47 130 -47 35 0 97 37
103 63 4 13 15 23 27 25 25 4 37 32 28 63 -5 15 -4 19 4 14 19 -11 37 12 39
52 2 37 0 39 -48 62 -27 13 -50 24 -50 25 0 1 4 16 9 33 7 22 6 35 -1 39 -7 4
-8 2 -4 -5 11 -18 -23 -25 -50 -11 -18 10 -23 19 -18 34 5 19 3 18 -16 -4 -15
-17 -20 -19 -16 -7 3 9 4 17 2 17 -12 0 -98 -55 -109 -68 -7 -10 -23 -23 -36
-30 -21 -12 -23 -12 -18 1 3 9 0 18 -7 20 -8 3 -13 0 -12 -6 0 -7 -3 -13 -9
-14 -5 -1 -9 5 -7 13 4 21 -15 17 -32 -8 -9 -12 -16 -17 -16 -11 0 6 -16 14
-36 18 -29 5 -35 10 -31 25 4 16 -2 19 -42 22 -31 2 -45 7 -43 16 2 10 -2 10
-20 1 -20 -10 -18 -7 7 21 l30 33 -31 -18 c-31 -17 -32 -17 -78 10 -25 15 -46
29 -46 32 0 2 6 1 13 -2 6 -4 -6 8 -27 27 -22 18 -42 33 -45 33 -3 0 -17 8
-30 17 -20 14 -23 22 -17 49 5 27 4 30 -9 19 -13 -10 -15 -9 -16 11 -1 21 -2
20 -9 -6 -7 -26 -8 -27 -9 -6 -1 18 -4 21 -13 13 -10 -8 -12 6 -10 68 3 63 -1
86 -17 121 -12 23 -18 45 -13 48 16 13 64 83 78 116 17 41 18 146 1 195 -7 20
-30 48 -56 67 -49 38 -68 37 -25 -1 27 -23 27 -25 6 -21 -12 2 -27 7 -34 11
-7 4 -8 3 -4 -4 4 -7 3 -12 -1 -12 -5 0 -15 20 -22 45 -7 25 -17 48 -22 50 -4
3 -1 -15 7 -39 9 -25 14 -55 12 -68 -3 -18 -6 -14 -12 17 -9 44 -103 225 -116
225 -14 0 -17 -24 -7 -50 6 -14 30 -55 54 -91 40 -62 53 -99 36 -99 -20 1 -72
82 -90 140 -39 123 -38 131 23 105 20 -8 58 -15 85 -15 54 0 67 13 71 71 2 26
-2 35 -22 46 -22 11 -23 13 -5 14 12 0 3 6 -20 14 l-40 13 33 1 c18 1 42 -4
52 -9 22 -12 29 -4 36 38 9 50 15 60 39 66 44 11 28 31 -27 34 -29 2 -54 5
-56 7 -3 2 5 20 17 40 12 20 19 41 16 46 -9 13 19 11 37 -3 9 -7 18 -20 21
-28 4 -10 6 -8 6 7 1 12 12 30 26 41 13 11 22 22 18 26 -3 3 -12 1 -19 -4 -8
-8 -36 1 -95 30 -104 51 -115 61 -124 116 -3 24 -22 74 -40 112 -19 37 -35 70
-35 75 0 4 12 7 28 8 23 1 21 3 -14 12 -23 7 -48 17 -56 24 -26 22 -103 53
-133 53 -23 0 -27 3 -15 10 26 17 -6 11 -54 -10 -25 -12 -46 -27 -46 -35 0 -8
-15 -40 -34 -72 -61 -105 -77 -205 -47 -291 10 -29 14 -55 10 -58 -5 -3 -9
-13 -9 -22 0 -9 -14 -31 -31 -48 -29 -30 -31 -35 -21 -64 7 -18 7 -28 2 -25
-6 4 -13 0 -16 -8 -3 -8 -25 -29 -50 -46 -40 -29 -45 -31 -51 -14 -7 21 -68
83 -81 83 -5 0 11 -20 35 -45 44 -47 55 -69 28 -58 -9 3 -21 -1 -28 -9 -22
-27 -45 -28 -76 -2 -16 13 -46 31 -66 39 -19 9 -34 19 -31 23 2 4 -15 7 -39 7
-24 0 -41 -3 -38 -7 2 -5 -10 -8 -28 -8 -34 0 -126 -45 -174 -86 l-30 -26 34
17 c94 47 225 59 301 29 47 -19 86 -70 85 -111 0 -23 -5 -29 -28 -31 -15 -2
-25 -8 -22 -13 4 -5 -6 -9 -22 -9 -15 0 -34 -4 -42 -9 -18 -12 -81 6 -107 30
-11 10 -24 19 -28 19 -4 0 -14 6 -22 14 -12 13 -12 16 3 25 14 8 10 9 -17 4
-19 -3 -37 -7 -39 -9 -2 -2 -11 5 -20 15 -26 29 -67 18 -119 -31 -64 -61 -73
-68 -79 -68 -3 0 13 20 36 45 22 24 41 47 41 49 0 3 -15 -3 -33 -14 -57 -34
-112 -125 -82 -136 16 -6 21 -26 6 -21 -5 1 -23 -10 -40 -26 -29 -25 -31 -32
-31 -92 0 -71 -12 -82 -56 -51 -23 17 -25 66 -2 95 7 9 3 7 -9 -6 -12 -13 -27
-23 -32 -23 -16 0 -122 -150 -115 -162 4 -7 3 -8 -4 -4 -7 4 -12 3 -12 -3 0
-5 -11 -22 -24 -38 -13 -15 -24 -32 -24 -36 -1 -13 -52 -50 -52 -38 0 5 9 25
19 43 11 18 27 60 36 93 28 99 42 123 77 138 39 17 111 86 145 140 38 60 63
152 62 221 l-2 61 -6 -55 c-6 -50 -51 -147 -51 -110 0 9 8 26 17 40 26 37 20
157 -11 226 -27 58 -43 75 -22 22 7 -18 17 -46 20 -63 7 -29 7 -29 -22 10 -16
23 -44 53 -63 69 -31 27 -32 29 -15 42 14 10 24 11 39 2 17 -9 19 -8 14 6 -4
10 -13 45 -21 79 -8 34 -22 79 -30 99 -25 59 -21 73 23 86 21 7 44 12 51 12 7
0 49 -35 94 -79 44 -43 91 -84 103 -90 65 -33 153 13 153 81 0 25 6 36 23 43
12 6 26 20 32 33 5 12 17 24 25 27 8 3 26 25 40 50 28 50 25 49 69 34 19 -7
36 -8 41 -3 5 5 13 58 18 117 7 83 13 113 29 130 18 21 43 79 79 182 21 61 23
201 5 267 -8 26 -17 46 -21 43 -4 -3 -13 9 -20 25 -7 17 -17 33 -23 37 -6 4
-7 1 -2 -8 5 -8 -2 -5 -14 6 -12 10 -34 21 -49 23 -15 2 -34 10 -43 18 -8 8
-21 14 -28 14 -7 0 -9 5 -5 13 6 9 4 9 -8 -1 -10 -8 -19 -9 -22 -3 -3 5 14 17
39 27 25 9 43 19 41 22 -3 2 -23 -3 -46 -12 -51 -20 -60 -20 -60 1 0 15 -2 14
-15 -3 -13 -16 -14 -17 -9 -1 4 10 3 17 -2 15 -16 -4 -114 64 -107 74 3 7 1 8
-5 4 -12 -7 -92 41 -92 55 0 5 -7 5 -17 2 -11 -4 -14 -3 -9 5 4 7 -7 17 -29
26 -20 9 -34 20 -30 26 3 5 -1 10 -11 10 -13 0 -14 3 -4 15 15 18 11 18 -66 4
-83 -15 -166 -62 -229 -130 -70 -77 -111 -162 -131 -273 -21 -121 -38 -159
-93 -204 -59 -49 -77 -55 -106 -36 -22 15 -23 14 -30 -16 l-7 -30 -30 25 c-17
14 -37 24 -44 21 -7 -3 -16 -1 -19 4 -4 6 -15 10 -26 10 -10 0 -19 4 -19 9 0
4 -11 7 -25 6 -14 -2 -25 1 -25 7 0 6 -6 5 -15 -2 -11 -9 -15 -9 -15 -1 0 7
-10 10 -25 7 -15 -3 -25 0 -25 7 0 7 -4 6 -10 -3 -7 -11 -10 -12 -10 -2 0 8
-6 12 -12 9 -7 -2 -12 -10 -10 -16 1 -7 -2 -10 -7 -7 -5 4 -8 15 -6 26 2 11 0
20 -5 20 -5 0 -8 6 -6 13 1 6 1 9 -1 5 -9 -15 -19 -8 -20 14 -1 12 -9 28 -18
37 -14 14 -16 14 -21 -6 -4 -13 -10 -20 -15 -17 -5 3 -9 0 -9 -6 0 -6 -4 -8
-10 -5 -13 8 -13 2 4 -70 22 -92 31 -189 17 -181 -6 4 -11 0 -12 -11 -1 -10
-5 2 -11 27 -36 169 -119 405 -148 420 -29 15 -45 13 -31 -4 29 -35 91 -276
91 -354 0 -35 -1 -36 -15 -16 -10 15 -22 20 -39 17 -29 -6 -28 -7 -55 144 -22
123 -48 221 -63 240 -19 23 -147 8 -232 -27 -42 -18 -83 -29 -91 -26 -8 3 -15
2 -15 -3 0 -18 -119 -15 -157 4 -15 8 -34 15 -41 15 -7 0 -10 5 -7 10 3 6 0
10 -7 10 -20 0 -54 27 -46 36 4 4 13 2 21 -4 7 -6 18 -7 27 -2 10 6 4 10 -21
15 -68 12 -174 22 -182 18 -5 -3 -122 -6 -260 -7 -162 -2 -268 -7 -297 -15
-91 -25 -116 -34 -150 -57 -37 -26 -67 -34 -34 -10 26 20 11 31 -41 31 -43 0
-49 10 -10 17 14 2 21 14 26 40 3 21 1 39 -4 41 -12 4 1 47 14 47 5 0 9 -11 9
-24 0 -19 16 -36 35 -36 8 0 47 72 42 77 -11 11 -154 33 -215 33 -47 0 -63 3
-60 13 3 6 14 13 26 15 14 2 20 8 15 15 -4 6 -8 19 -8 28 -1 13 4 15 25 9 32
-9 68 11 48 27 -7 6 -23 14 -36 17 -12 4 -20 11 -17 16 3 5 -1 11 -7 13 -7 3
-4 6 8 6 11 1 25 6 31 12 8 8 20 7 44 -5 18 -9 49 -16 70 -16 41 0 69 -26 69
-65 0 -16 2 -17 10 -5 5 8 7 23 4 33 -3 9 0 17 7 17 9 0 9 3 0 14 -10 12 -6
15 20 21 21 5 28 10 19 15 -10 6 -9 12 5 26 11 12 14 19 6 22 -6 2 -9 15 -6
30 3 15 2 21 -1 15 -9 -20 -24 -15 -24 6 0 14 -5 18 -20 14 -11 -3 -20 0 -20
6 0 6 -9 11 -20 11 -11 0 -20 5 -20 11 0 7 -12 10 -29 7 -22 -3 -28 -1 -23 10
3 10 0 13 -9 10 -8 -3 -13 -10 -12 -16 1 -5 -7 -8 -19 -4 l-22 5 22 8 c34 13
27 33 -8 25 -19 -3 -29 -2 -25 4 7 11 -4 13 -53 10 -18 -1 -39 4 -47 10 -8 6
-20 8 -26 4 -8 -4 -9 -3 -5 4 9 14 -3 15 -24 2 -8 -5 -19 -5 -25 0 -6 5 -22 0
-38 -12z m-147 -398 c14 -11 20 -20 13 -20 -6 0 -15 5 -18 10 -3 6 -15 10 -26
10 -11 0 -17 5 -14 10 9 14 16 12 45 -10z m221 -72 c19 -6 40 -18 47 -25 13
-13 36 -17 80 -13 27 2 30 -25 5 -52 -19 -22 -53 -24 -53 -3 0 8 -11 17 -25
21 -14 3 -25 9 -25 14 0 4 -16 15 -35 26 -19 10 -35 24 -35 31 0 16 -1 16 41
1z m-227 -44 c21 -8 21 -24 0 -24 -8 0 -12 5 -8 11 4 8 -1 9 -17 4 -19 -5 -21
-4 -9 4 18 13 15 12 34 5z m894 -31 c-21 -2 -57 -2 -80 0 -24 2 -7 4 37 4 44
0 63 -2 43 -4z m-135 -10 c-7 -2 -19 -2 -25 0 -7 3 -2 5 12 5 14 0 19 -2 13
-5z m62 -42 c29 -7 29 -7 9 -19 -12 -6 -25 -8 -29 -4 -5 4 -5 1 -1 -5 9 -16
-3 -16 -29 0 -48 29 -21 44 50 28z m-448 -18 c3 -7 -12 -19 -33 -28 -47 -20
-49 -19 -24 7 11 12 20 26 20 31 0 13 33 4 37 -10z m549 -28 c9 -14 14 -29 10
-33 -4 -4 -12 1 -17 10 -5 9 -16 24 -25 33 -14 13 -14 15 0 15 9 0 23 -11 32
-25z m-67 -65 c0 -8 -6 0 -14 19 -8 18 -15 36 -15 40 1 13 29 -45 29 -59z
m-109 25 c13 -14 21 -25 18 -25 -2 0 -15 11 -28 25 -13 14 -21 25 -18 25 2 0
15 -11 28 -25z m-56 -12 c-10 -7 -22 -13 -27 -13 -5 0 -4 6 2 13 6 8 18 14 27
14 15 0 14 -2 -2 -14z m1460 -98 l8 -30 -22 28 c-12 15 -24 47 -27 70 l-4 42
19 -40 c10 -22 22 -53 26 -70z m137 -55 c10 0 103 -80 107 -91 2 -5 -4 -6 -14
-2 -12 4 -15 3 -10 -5 11 -19 -3 -14 -27 8 -12 11 -28 18 -35 15 -10 -4 -12 0
-8 12 4 10 4 14 0 10 -4 -4 -14 -1 -23 6 -14 11 -14 10 -2 -6 12 -15 12 -17
-2 -11 -18 6 -25 23 -33 72 l-6 34 23 -21 c13 -11 26 -21 30 -21z m35 3 c-7
-7 -26 7 -26 19 0 6 6 6 15 -2 9 -7 13 -15 11 -17z m-2479 -55 c55 -28 103
-90 103 -134 0 -18 -4 -35 -9 -38 -4 -3 -6 7 -3 22 5 24 4 26 -11 13 -15 -12
-17 -11 -17 3 0 9 5 16 12 16 9 0 9 3 1 11 -6 6 -10 17 -9 23 2 6 1 8 -1 4 -2
-4 -10 -6 -16 -4 -7 1 -9 1 -4 -1 18 -11 4 -23 -20 -17 -43 9 -83 26 -83 34 0
13 -69 42 -82 34 -7 -5 -8 -3 -3 6 6 10 1 11 -21 6 -16 -3 -42 -8 -58 -11 -16
-2 -36 -11 -45 -18 -9 -8 -23 -18 -31 -22 -13 -8 -13 -6 -1 8 7 9 37 28 67 43
100 49 165 55 231 22z m2863 -55 c0 -13 -4 -23 -9 -23 -12 0 -21 26 -21 58 1
26 1 26 15 8 8 -11 15 -30 15 -43z m-2811 -75 c-14 -26 -24 -28 -24 -4 0 14 6
22 17 22 12 0 14 -4 7 -18z m3785 -17 c43 -44 47 -84 9 -89 -26 -4 -70 49 -79
96 -6 27 -4 32 13 32 10 0 36 -17 57 -39z m-2719 -72 c108 -78 265 -134 415
-145 105 -8 105 -8 82 -46 -114 -187 -193 -419 -247 -730 -27 -157 -51 -256
-91 -383 -26 -80 -44 -115 -44 -82 0 11 -8 17 -24 17 -14 0 -28 4 -31 10 -3 6
1 7 10 4 14 -6 14 -3 3 20 -8 19 -17 26 -30 23 -25 -7 -33 9 -11 22 26 14 9
25 -19 11 -21 -10 -22 -10 -4 4 19 16 14 36 -10 36 -8 0 -14 6 -13 13 4 21
-38 117 -50 117 -15 0 -71 117 -65 135 6 15 4 16 -14 6 -27 -14 -28 -5 -4 22
13 16 14 19 2 15 -53 -19 -60 -19 -54 -4 3 8 12 17 20 20 19 7 18 26 -2 26
-13 0 -15 7 -11 33 7 52 -10 157 -38 227 l-25 65 4 -75 c2 -41 1 -60 -1 -42
-3 24 -8 32 -18 28 -8 -3 -17 -1 -20 3 -3 5 2 11 10 15 21 8 19 26 -3 26 -36
0 -90 75 -103 143 l-7 39 39 -44 c54 -61 54 -61 66 -82 9 -17 13 -14 33 30 30
64 40 174 16 174 -9 0 -16 4 -16 9 0 5 -8 12 -18 15 -10 4 -28 15 -40 27 -12
11 -22 15 -22 9 0 -18 -20 -11 -21 8 -1 14 -2 13 -7 -3 l-5 -20 -8 20 c-7 19
-8 19 -8 -2 -1 -13 -7 -23 -13 -24 -7 0 -4 -4 7 -9 18 -8 18 -9 -5 -10 -23 -1
-23 -2 -5 -10 20 -8 20 -9 -1 -9 -14 -1 -38 20 -72 60 -29 34 -52 57 -52 52 0
-6 9 -18 20 -28 11 -10 20 -22 20 -27 0 -14 -38 -9 -44 7 -3 9 -18 15 -35 15
-16 0 -33 5 -36 10 -4 6 -10 8 -15 5 -5 -3 -11 -1 -15 4 -7 12 69 48 140 67
66 18 83 17 88 -3 4 -15 5 -14 6 3 1 14 14 26 44 39 42 18 163 97 182 119 6 6
27 25 47 43 43 37 50 36 123 -18z m-2385 -59 c0 -5 -15 -10 -32 -9 -28 0 -30
2 -13 9 28 12 45 12 45 0z m3730 -65 c46 -50 62 -92 104 -268 30 -124 29 -120
16 -112 -6 3 -7 -1 -4 -10 4 -9 9 -13 12 -10 6 6 44 -126 46 -160 0 -11 3 -22
6 -25 14 -13 29 -62 23 -76 -4 -11 -13 2 -29 42 -13 31 -24 65 -24 75 0 9 -4
19 -8 21 -11 4 -64 157 -102 298 -18 63 -42 137 -54 165 -29 65 -38 103 -29
118 5 8 9 6 11 -8 2 -11 16 -33 32 -50z m191 -12 l24 -27 -32 23 c-33 23 -40
31 -25 31 5 0 19 -12 33 -27z m-3804 11 c-3 -3 -12 -4 -19 -1 -8 3 -5 6 6 6
11 1 17 -2 13 -5z m3513 -13 c0 -5 3 -17 7 -27 5 -14 2 -16 -15 -12 -12 4 -20
2 -16 -3 3 -5 -4 -9 -14 -9 -11 0 -23 7 -26 16 -9 22 -8 23 14 17 14 -4 20 0
20 11 0 9 7 16 15 16 8 0 15 -4 15 -9z m-3450 -41 c0 -5 -2 -10 -4 -10 -3 0
-8 5 -11 10 -3 6 -1 10 4 10 6 0 11 -4 11 -10z m3498 -98 c11 -31 36 -108 56
-170 19 -62 43 -128 52 -147 9 -19 13 -43 10 -52 -4 -10 -4 -14 0 -10 4 4 15
-10 24 -30 12 -27 14 -40 6 -45 -8 -5 -6 -17 7 -39 10 -18 15 -34 13 -37 -9
-8 -87 169 -80 180 4 6 3 8 -3 5 -10 -7 -15 4 -91 193 -28 69 -57 139 -66 155
-16 30 -21 54 -10 42 4 -3 13 0 20 8 23 23 40 8 62 -53z m-2296 -73 c16 -12
27 -24 24 -26 -3 -3 -19 6 -36 21 -38 31 -30 35 12 5z m-17 -47 c-3 -3 -11 0
-18 7 -9 10 -8 11 6 5 10 -3 15 -9 12 -12z m2132 -35 c6 -13 38 -55 70 -93 72
-83 134 -167 157 -211 25 -49 12 -40 -19 13 -20 34 -30 43 -36 33 -4 -8 -3
-20 4 -28 9 -12 9 -13 0 -7 -7 4 -13 3 -13 -2 0 -6 7 -13 16 -16 8 -3 12 -10
9 -16 -3 -5 2 -10 11 -10 10 0 14 -3 11 -7 -4 -3 -2 -13 4 -22 7 -9 -5 1 -25
22 -22 23 -35 44 -32 53 4 9 -3 18 -18 24 -26 9 -116 128 -116 151 1 8 6 4 13
-9 7 -12 16 -19 20 -16 4 4 7 2 7 -5 0 -7 5 -9 12 -5 8 5 9 2 5 -10 -5 -11 -3
-15 5 -10 7 5 9 2 5 -9 -6 -17 15 -41 27 -29 5 4 7 0 6 -8 -4 -25 0 -44 7 -37
3 4 13 1 21 -6 13 -10 15 -9 9 6 -4 11 -3 16 3 12 18 -11 10 10 -15 38 -24 27
-36 34 -34 20 3 -17 -2 -24 -11 -18 -8 5 -7 11 1 21 9 12 2 26 -40 73 -28 33
-51 62 -51 66 0 4 -9 20 -21 36 -11 16 -16 29 -11 29 5 0 14 -10 19 -23z
m-3534 6 c-7 -2 -19 -2 -25 0 -7 3 -2 5 12 5 14 0 19 -2 13 -5z m5802 -23 c10
-11 15 -20 11 -20 -4 0 -19 9 -33 20 -17 13 -20 20 -11 20 8 0 23 -9 33 -20z
m-5742 -7 c-13 -2 -33 -2 -45 0 -13 2 -3 4 22 4 25 0 35 -2 23 -4z m3480 -53
c3 -11 1 -18 -4 -14 -5 3 -9 12 -9 20 0 20 7 17 13 -6z m2497 -21 c0 -22 8
-34 33 -49 17 -11 39 -20 47 -20 8 1 -1 8 -20 16 -58 25 -59 62 -1 44 81 -25
129 -59 84 -60 -14 -1 -12 -4 7 -16 24 -15 23 -15 -30 -10 -38 4 -70 16 -110
40 -54 35 -55 35 -69 15 -13 -19 -15 -19 -34 -2 -20 17 -20 17 -13 -2 5 -14 4
-17 -4 -9 -16 16 -4 37 41 66 48 31 69 27 69 -13z m-4571 -16 c2 -2 0 -3 -5
-3 -5 0 -22 12 -39 26 l-30 26 35 -23 c19 -12 37 -24 39 -26z m-82 21 c-3 -3
-12 -4 -19 -1 -8 3 -5 6 6 6 11 1 17 -2 13 -5z m-1580 -36 c-3 -8 -6 -5 -6 6
-1 11 2 17 5 13 3 -3 4 -12 1 -19z m4688 -40 c15 -18 22 -34 16 -36 -15 -5
-59 29 -64 51 -8 28 19 20 48 -15z m-2335 -173 c0 -58 -3 -105 -7 -105 -5 0
-8 20 -9 45 -1 32 -7 50 -20 60 -18 14 -18 14 4 15 19 0 22 5 22 45 0 25 2 45
5 45 3 0 5 -47 5 -105z m1671 -78 c11 -22 19 -40 17 -42 -2 -2 -18 24 -36 58
-18 34 -25 53 -16 42 8 -11 25 -37 35 -58z m2379 48 c11 -13 7 -15 -26 -15
-39 1 -39 1 -14 15 14 8 26 14 26 15 1 0 7 -7 14 -15z m-5599 -22 c-8 -15 -10
-15 -11 -2 0 17 10 32 18 25 2 -3 -1 -13 -7 -23z m3372 12 c-3 -9 -8 -14 -10
-11 -3 3 -2 9 2 15 9 16 15 13 8 -4z m-3823 -3 c0 -5 -7 -17 -15 -28 -15 -19
-16 -19 -13 1 3 23 28 47 28 27z m3764 -43 c32 -48 59 -119 46 -119 -6 0 -10
6 -10 13 0 8 -16 44 -35 80 -40 76 -40 86 -1 26z m2117 14 l24 -28 -30 25
c-16 14 -32 26 -34 28 -2 1 0 2 6 2 5 0 20 -12 34 -27z m-2031 -32 c0 -32 -6
-24 -14 19 -4 25 -3 31 4 20 5 -8 10 -26 10 -39z m77 27 c-3 -8 -6 -5 -6 6 -1
11 2 17 5 13 3 -3 4 -12 1 -19z m513 -59 c0 -4 -4 -11 -10 -14 -5 -3 -10 -1
-10 5 0 6 -4 9 -9 6 -4 -3 -6 -16 -4 -29 5 -24 -10 -42 -51 -62 -11 -6 -21
-17 -21 -25 0 -8 -17 -20 -40 -26 -53 -16 -91 -17 -48 -1 57 21 45 24 -70 19
-63 -2 -117 -1 -120 4 -3 5 40 9 96 9 86 0 108 3 142 22 50 27 95 69 95 88 0
8 5 15 10 15 6 0 10 8 10 18 1 15 2 15 15 -2 8 -11 15 -23 15 -27z m1540 19
c0 -5 -4 -8 -9 -8 -5 0 -17 -3 -27 -7 -11 -4 -15 -3 -11 4 4 6 1 13 -5 16 -7
2 2 4 19 3 18 -1 33 -4 33 -8z m-1947 -61 c-6 -36 -6 -37 -23 -17 -28 32 -43
25 -24 -12 22 -42 21 -141 0 -193 -23 -55 -61 -91 -126 -121 -30 -15 -67 -32
-82 -39 l-26 -13 -7 83 c-9 99 10 176 58 243 39 54 76 74 146 78 32 2 61 10
70 18 20 20 22 17 14 -27z m-2047 -12 c0 -19 -4 -35 -8 -35 -4 0 -8 5 -8 11 0
7 -8 18 -17 25 -17 12 -16 13 5 14 12 0 22 5 22 10 0 6 1 10 3 10 2 0 3 -16 3
-35z m-1809 8 c7 8 144 -63 139 -72 -2 -3 7 -7 21 -8 14 0 30 -6 35 -11 13
-13 14 -60 2 -72 -10 -8 -229 119 -220 128 3 3 13 -1 23 -9 15 -12 16 -12 8 1
-4 8 -17 26 -29 40 -15 17 -16 20 -3 11 9 -8 20 -11 24 -8z m1020 -15 c-3 -7
-5 -2 -5 12 0 14 2 19 5 13 2 -7 2 -19 0 -25z m700 0 c-3 -8 -6 -5 -6 6 -1 11
2 17 5 13 3 -3 4 -12 1 -19z m3607 -72 c6 -62 -15 -74 -94 -53 -30 9 -47 16
-38 16 10 1 15 7 12 14 -3 8 3 20 13 27 15 12 16 12 6 0 -7 -8 -13 -18 -13
-22 0 -5 6 -8 13 -6 6 1 23 -2 36 -6 31 -11 40 5 41 69 1 60 15 36 24 -39z
m-1020 40 c-10 -8 -21 -12 -24 -10 -5 6 21 24 34 24 6 0 1 -6 -10 -14z m-702
-28 c-8 -8 -9 -4 -5 13 4 13 8 18 11 10 2 -7 -1 -18 -6 -23z m-1811 -24 c-5
-21 -9 -30 -10 -19 -1 24 10 67 15 62 3 -2 0 -22 -5 -43z m2479 41 c0 -3 -9
-14 -20 -25 -11 -11 -20 -28 -20 -37 0 -15 -2 -16 -10 -3 -8 12 -10 11 -10 -5
0 -11 -9 -28 -20 -38 -22 -19 -35 -22 -25 -7 3 6 -4 10 -17 10 -18 0 -14 6 25
33 26 17 47 37 47 43 0 14 21 34 37 34 7 0 13 -2 13 -5z m-867 -12 c-13 -2
-33 -2 -45 0 -13 2 -3 4 22 4 25 0 35 -2 23 -4z m177 -44 c0 -6 -4 -7 -10 -4
-5 3 -10 11 -10 16 0 6 5 7 10 4 6 -3 10 -11 10 -16z m433 4 c-13 -2 -33 -2
-45 0 -13 2 -3 4 22 4 25 0 35 -2 23 -4z m-4579 -11 c3 -5 -1 -9 -9 -9 -8 0
-12 4 -9 9 3 4 7 8 9 8 2 0 6 -4 9 -8z m5053 -24 c-3 -8 -6 -5 -6 6 -1 11 2
17 5 13 3 -3 4 -12 1 -19z m463 18 c0 -2 -11 -6 -25 -8 -13 -3 -22 -1 -19 3 5
9 44 13 44 5z m188 -21 c-5 -25 7 -36 14 -13 3 9 15 8 46 -6 23 -10 39 -23 36
-27 -3 -5 -14 -4 -26 2 -14 8 -23 8 -31 0 -6 -6 -19 -11 -28 -11 -13 0 -20
-12 -25 -45 -3 -25 -10 -47 -14 -50 -4 -3 -4 12 1 33 5 20 9 54 9 74 0 37 8
68 17 68 3 0 3 -11 1 -25z m-5745 -2 c-5 -11 -3 -14 6 -9 21 13 -14 -46 -43
-73 -25 -24 -26 -24 -26 -3 0 11 5 24 10 27 6 4 7 12 4 18 -4 7 -4 9 1 5 9 -9
35 9 35 24 0 5 -6 6 -12 3 -7 -4 -4 1 6 9 25 20 27 20 19 -1z m2407 -14 c0
-12 -4 -18 -11 -13 -9 5 -10 -4 -4 -32 8 -48 -4 -39 -15 10 -6 28 -5 36 6 36
8 0 14 5 14 10 0 6 2 10 5 10 3 0 5 -9 5 -21z m2132 -17 c11 -13 8 -12 -19 2
-18 9 -33 18 -33 20 0 9 41 -8 52 -22z m-3684 0 c-5 -18 15 -45 26 -35 3 4 6
1 6 -5 0 -18 -28 -14 -38 4 -9 16 -5 54 5 54 3 0 3 -8 1 -18z m3857 2 c-11 -8
-26 -12 -33 -9 -8 3 -30 6 -50 7 -24 1 -14 4 28 8 36 4 67 7 70 8 3 1 -4 -5
-15 -14z m-2180 -24 c10 -11 16 -20 13 -20 -3 0 -13 9 -23 20 -10 11 -16 20
-13 20 3 0 13 -9 23 -20z m-1594 -17 l24 -27 -29 18 c-16 10 -26 13 -22 8 3
-6 2 -13 -2 -16 -5 -3 -8 5 -7 17 4 35 4 35 36 0z m1386 5 c-3 -8 -6 -5 -6 6
-1 11 2 17 5 13 3 -3 4 -12 1 -19z m90 -55 c-2 -16 -4 -3 -4 27 0 30 2 43 4
28 2 -16 2 -40 0 -55z m2084 50 c13 -15 12 -15 -11 -3 -34 17 -36 20 -18 20 9
0 22 -7 29 -17z m232 10 c-7 -2 -19 -2 -25 0 -7 3 -2 5 12 5 14 0 19 -2 13 -5z
m1547 -13 c0 -8 -24 -20 -41 -20 -5 0 -4 9 3 19 11 18 38 18 38 1z m-398 -27
c-3 -16 -7 -22 -10 -15 -4 13 4 42 11 42 2 0 2 -12 -1 -27z m-120 -5 c-7 -7
-12 -8 -12 -2 0 14 12 26 19 19 2 -3 -1 -11 -7 -17z m656 -133 c30 -35 42 -68
46 -130 l5 -70 -13 60 c-8 37 -14 50 -16 35 l-2 -25 -8 25 c-7 23 -8 23 -9 3
-1 -12 -5 -24 -10 -27 -4 -3 -7 19 -6 48 2 43 0 53 -11 49 -18 -7 -29 23 -15
40 8 10 7 19 -5 33 -13 16 -15 16 -10 2 3 -10 1 -20 -4 -23 -6 -4 -10 -16 -10
-28 -1 -18 -4 -15 -15 12 -8 18 -13 36 -11 40 2 3 -1 17 -8 29 -7 13 -10 37
-8 53 4 30 6 29 53 -43 26 -40 52 -78 57 -83z m-5462 95 c8 0 14 -4 14 -10 0
-20 -27 -9 -56 22 l-29 32 29 -22 c16 -12 35 -22 42 -22z m5332 25 c-10 -11
-48 -14 -48 -4 0 5 12 9 27 9 14 0 24 -2 21 -5z m-435 -30 c-6 -18 -34 -20
-30 -2 3 15 19 27 29 21 4 -3 5 -11 1 -19z m-4123 11 c0 -3 -4 -8 -10 -11 -5
-3 -10 -1 -10 4 0 6 5 11 10 11 6 0 10 -2 10 -4z m3020 1 c0 -2 -10 -12 -22
-23 l-23 -19 19 23 c18 21 26 27 26 19z m1795 -15 c-3 -3 -11 0 -18 7 -9 10
-8 11 6 5 10 -3 15 -9 12 -12z m-4456 -13 c18 -4 39 -13 45 -20 8 -9 7 -10 -8
-5 -10 3 -38 11 -62 17 -25 6 -47 16 -50 21 -4 6 2 7 17 3 13 -5 39 -12 58
-16z m3652 -17 c-5 -9 -19 -26 -32 -37 -17 -15 -15 -10 7 17 32 41 40 48 25
20z m709 8 c0 -5 -8 -7 -17 -3 -14 5 -13 1 5 -16 25 -24 29 -51 8 -51 -8 0
-19 14 -25 31 -15 44 -14 49 9 49 11 0 20 -4 20 -10z m-646 -15 c-4 -8 -11
-15 -16 -15 -6 0 -5 6 2 15 7 8 14 15 16 15 2 0 1 -7 -2 -15z m-3360 -57 c-3
-5 -12 3 -20 17 -19 38 -17 44 6 16 11 -12 17 -27 14 -33z m2538 -12 c23 12
31 12 42 2 11 -11 7 -16 -23 -30 l-36 -17 -27 29 c-17 18 -28 42 -28 58 0 25
2 24 22 -15 21 -42 21 -42 50 -27z m-2737 44 c16 -7 13 -9 -17 -9 -21 -1 -38
4 -38 9 0 12 27 12 55 0z m124 -16 c17 -4 31 -11 31 -16 0 -11 -77 -3 -114 12
-17 7 -15 9 15 9 20 1 51 -2 68 -5z m192 -121 c31 -21 80 -60 108 -86 l51 -48
-24 -47 c-43 -84 -45 -85 -90 -67 -21 9 -44 14 -51 11 -14 -5 -64 -80 -100
-148 -13 -25 -23 -34 -30 -28 -8 7 -11 3 -10 -12 1 -12 -6 -35 -14 -50 -15
-27 -15 -29 9 -48 l25 -19 -24 -23 c-23 -23 -23 -23 -10 -1 11 19 11 25 -5 42
-10 11 -16 29 -13 40 2 10 1 25 -4 32 -6 10 -9 7 -9 -11 0 -20 -2 -22 -10 -10
-5 8 -10 11 -10 7 0 -4 -6 -2 -14 5 -8 7 -12 16 -10 20 2 4 0 9 -6 13 -11 7
-14 103 -4 129 3 9 10 13 15 10 5 -3 9 4 9 15 0 15 4 19 18 14 9 -4 20 -11 23
-16 10 -14 30 2 28 21 -1 10 0 20 1 25 1 4 3 10 4 15 9 36 20 52 38 52 14 0
18 5 14 16 -3 9 -6 20 -6 25 0 6 -5 7 -10 4 -7 -4 -9 2 -4 19 3 14 7 62 8 105
l1 80 25 -24 c14 -13 50 -41 81 -62z m3831 15 c-7 -7 -12 -8 -12 -2 0 14 12
26 19 19 2 -3 -1 -11 -7 -17z m-4921 -5 c13 -16 12 -17 -3 -4 -10 7 -18 15
-18 17 0 8 8 3 21 -13z m3753 -1 c-10 -9 -34 -29 -52 -45 -52 -42 -28 -32 41
18 65 48 102 55 102 20 0 -11 4 -23 9 -27 15 -10 -8 -30 -71 -62 -32 -15 -74
-36 -93 -46 -19 -9 -46 -16 -60 -15 -14 1 -29 -1 -35 -5 -20 -15 -100 -16
-116 -1 -14 13 -12 18 15 41 27 23 93 64 201 122 17 9 41 17 54 17 24 1 24 1
5 -17z m-3672 -34 c-7 -7 -12 -8 -12 -2 0 14 12 26 19 19 2 -3 -1 -11 -7 -17z
m-37 -8 c10 -11 16 -20 13 -20 -3 0 -13 9 -23 20 -10 11 -16 20 -13 20 3 0 13
-9 23 -20z m3260 -10 c-3 -5 -16 -10 -28 -9 -21 0 -21 1 -2 9 28 12 37 12 30
0z m1479 -5 c55 -17 76 -31 76 -52 0 -21 -66 -157 -83 -172 -9 -7 -28 -11 -44
-9 -27 3 -29 7 -55 113 -15 60 -26 110 -25 111 1 1 42 -5 90 -14 87 -15 88
-16 82 -41 -3 -14 -20 -55 -36 -91 -17 -36 -26 -60 -21 -55 17 18 82 145 82
160 0 20 -28 33 -88 41 -29 3 -52 10 -52 15 0 13 18 11 74 -6z m-1414 -20 c6
-8 10 -21 8 -29 -3 -12 -8 -12 -40 2 -42 18 -47 28 -20 35 31 8 39 7 52 -8z
m-4410 -9 c0 -33 -13 -77 -20 -66 -5 8 -10 2 -14 -14 -3 -14 -11 -26 -16 -26
-15 0 -38 41 -45 83 l-7 37 51 0 c37 0 51 -4 51 -14z m4250 -15 c0 -4 28 -11
62 -15 47 -5 71 -13 97 -34 19 -16 36 -35 39 -43 2 -9 0 -10 -5 -4 -20 26 -79
58 -112 62 -20 2 -42 5 -49 8 -10 4 -10 0 -2 -16 9 -16 17 -19 41 -14 21 5 37
1 57 -14 27 -19 30 -27 34 -96 0 -5 -2 -32 -5 -60 -5 -41 -1 -59 19 -97 13
-27 22 -48 18 -48 -3 0 4 -13 15 -29 18 -24 19 -34 11 -57 l-11 -28 -19 28
c-10 16 -17 37 -15 47 3 13 -1 16 -12 12 -10 -4 -14 -2 -10 5 4 6 -1 13 -10
15 -10 3 -3 5 15 6 39 1 34 21 -6 21 -21 0 -24 3 -12 10 12 8 12 10 -3 16 -9
3 -17 12 -17 20 0 7 -9 28 -19 46 -11 17 -18 35 -15 40 3 4 -1 8 -8 8 -7 1 1
7 17 15 l30 13 -33 1 c-22 1 -35 7 -39 19 -3 9 -17 29 -30 43 -14 15 -26 35
-28 45 -1 11 -8 18 -14 17 -12 -3 -14 11 -5 45 6 21 24 31 24 13z m-3020 -41
c0 -5 -4 -10 -10 -10 -5 0 -10 5 -10 10 0 6 5 10 10 10 6 0 10 -4 10 -10z
m4846 -137 c4 -47 3 -77 -5 -89 -11 -18 -11 -18 -9 1 3 35 -13 119 -27 135 -8
9 -11 27 -8 42 l5 28 19 -24 c12 -15 21 -48 25 -93z m-4656 77 c14 -10 25 -22
25 -27 1 -11 34 -74 49 -93 15 -18 46 -114 46 -141 0 -26 23 -33 57 -20 26 10
25 11 -12 6 -26 -4 -35 -2 -26 3 10 7 10 11 1 17 -6 4 -9 13 -6 21 3 8 1 14
-3 14 -5 0 -8 11 -7 24 1 22 5 24 38 21 20 -2 49 -10 66 -19 31 -16 107 -97
124 -131 6 -13 1 -11 -14 7 -24 28 -85 58 -115 57 -10 0 3 -7 29 -15 26 -8 56
-26 67 -40 18 -23 51 -114 56 -154 4 -31 17 -86 31 -132 14 -42 14 -49 -1 -71
-9 -14 -24 -55 -35 -93 -11 -37 -23 -70 -27 -73 -5 -3 -8 -28 -9 -56 -1 -27
-8 -89 -17 -138 -13 -68 -25 -101 -57 -150 -22 -34 -40 -55 -40 -47 0 9 -9 2
-20 -15 -14 -20 -20 -25 -20 -13 0 9 -4 20 -10 23 -7 4 -7 -2 0 -19 5 -14 7
-34 4 -43 -4 -14 -3 -13 7 2 18 28 39 48 39 37 0 -5 -8 -20 -18 -33 -10 -13
-27 -42 -37 -64 -10 -22 -20 -35 -22 -28 -2 7 -12 9 -21 6 -12 -5 -11 -1 5 13
29 26 39 62 18 70 -12 5 -13 9 -4 20 9 11 8 14 -2 14 -11 0 -11 2 1 10 12 8
12 10 -5 10 -11 0 -35 -4 -53 -9 -20 -6 -30 -6 -27 0 4 5 11 9 18 9 6 0 30 7
53 16 36 14 43 21 52 57 l10 42 1 -42 c1 -48 17 -58 24 -15 4 25 4 24 6 -6 0
-20 5 -31 11 -27 6 4 8 10 5 15 -8 13 17 60 28 53 6 -3 7 -1 3 5 -3 6 1 17 9
26 10 10 14 25 9 43 -4 22 -3 25 5 13 6 -8 11 -10 11 -5 0 6 -5 16 -11 22 -13
13 -3 36 12 28 5 -4 9 1 9 9 0 10 -6 13 -15 10 -12 -5 -15 4 -15 49 0 68 -7
87 -31 87 -23 0 -25 -18 -4 -26 8 -4 15 -10 15 -15 0 -16 -15 -10 -28 12 -12
19 -11 24 19 51 l33 30 -30 -4 c-16 -3 -23 -3 -16 -1 14 5 16 15 3 29 -6 5
-12 34 -15 64 -3 30 -10 56 -16 58 -7 3 -8 8 -1 16 7 8 7 24 1 44 -6 23 -5 32
3 33 7 0 2 4 -9 9 -19 7 -21 14 -16 59 3 36 1 51 -8 51 -7 0 -10 -7 -7 -15 4
-8 2 -17 -3 -20 -6 -4 -10 7 -10 23 0 16 -3 44 -6 61 -5 25 -4 30 9 25 11 -4
15 1 13 20 -1 18 -7 26 -20 26 -36 0 -9 10 50 19 l59 9 -67 0 c-38 -1 -68 -5
-68 -9 0 -18 13 -38 21 -33 5 3 9 1 9 -5 0 -5 -4 -12 -9 -15 -12 -8 -1 -179
13 -188 8 -6 7 -11 -3 -17 -11 -7 -13 -31 -7 -128 3 -65 9 -129 13 -143 5 -21
4 -23 -8 -13 -20 16 -133 53 -166 54 -23 1 -19 3 17 13 25 7 40 15 33 19 -6 4
-19 4 -29 0 -12 -4 -15 -3 -10 5 12 20 59 13 98 -13 24 -16 36 -20 32 -11 -7
18 -68 56 -92 57 -14 0 -13 2 3 9 19 8 19 9 -2 9 -31 1 -40 21 -8 21 14 0 44
-12 68 -26 l42 -27 -24 27 c-14 14 -38 30 -55 34 -16 4 -32 14 -34 21 -3 8 0
11 7 7 8 -5 11 6 9 36 -1 37 -2 38 -5 11 -6 -47 -23 -41 -23 7 0 22 4 40 10
40 5 0 7 15 5 33 -4 25 -3 28 4 12 l10 -20 1 20 c2 11 2 23 1 28 0 4 5 7 11 7
9 0 8 4 -2 10 -10 6 -11 10 -2 10 6 0 12 9 12 20 0 11 -5 20 -11 20 -8 0 -8 4
-1 13 7 8 8 26 3 49 -5 21 -6 39 -3 42 3 4 0 6 -8 6 -9 0 -11 9 -6 31 5 27 4
30 -9 19 -15 -13 -20 -5 -16 28 1 7 -11 18 -27 25 -25 10 -27 14 -16 25 18 17
18 36 0 29 -21 -8 -28 21 -8 32 14 8 10 11 -18 12 -32 1 -33 2 -10 8 25 7 24
8 -7 15 -33 8 -46 26 -19 26 8 0 18 5 22 11 5 9 -1 10 -21 5 -25 -6 -27 -5
-16 8 8 9 21 16 30 17 12 0 11 2 -4 9 -17 7 -17 9 -2 9 9 1 17 6 17 11 0 16
33 11 60 -10z m-456 -68 c31 -23 66 -46 77 -51 20 -7 22 -15 25 -129 1 -67 8
-130 13 -141 6 -11 11 -48 11 -83 0 -35 7 -88 15 -118 8 -30 18 -86 21 -125 6
-69 34 -243 55 -340 8 -36 8 -70 1 -115 -9 -58 -8 -68 9 -92 10 -15 39 -80 65
-145 44 -111 70 -164 57 -113 -7 27 10 40 54 40 41 0 63 9 63 26 0 9 11 14 33
13 17 -1 24 -3 15 -6 -26 -7 -22 -25 5 -21 12 2 32 18 45 38 l22 35 -6 -30
c-10 -43 -33 -87 -44 -80 -5 3 -12 0 -16 -6 -4 -8 -3 -9 4 -5 7 4 12 4 12 -1
0 -20 -86 -263 -92 -258 -3 3 -3 -5 -1 -18 7 -37 -45 -244 -62 -244 -18 0 -29
27 -15 41 7 7 10 5 10 -8 0 -9 4 -15 10 -11 5 3 7 22 4 43 -9 71 -11 87 -12
105 -1 9 -9 17 -18 17 -13 0 -15 7 -11 30 5 22 2 33 -14 44 -14 9 -17 16 -9
21 8 5 3 16 -16 36 -15 16 -22 29 -15 29 7 0 9 5 6 10 -4 6 -11 7 -17 4 -7 -5
-9 -1 -5 9 4 12 1 17 -11 18 -10 0 -12 3 -4 6 6 2 12 11 12 19 0 8 -6 11 -15
8 -11 -5 -15 1 -15 19 0 13 -7 30 -15 37 -8 7 -15 23 -15 37 0 14 -4 21 -10
18 -6 -4 -9 6 -8 27 3 30 1 33 -21 30 -15 -2 -21 0 -17 7 4 6 13 11 19 11 7 0
23 17 36 38 19 29 20 33 5 20 -10 -9 -32 -19 -49 -23 -23 -5 -26 -4 -15 4 13
9 12 11 -5 12 -17 1 -17 2 -2 6 9 2 15 9 12 14 -4 5 1 9 9 9 27 0 18 17 -11
23 -16 4 -46 10 -68 15 l-40 8 35 8 c19 4 57 7 83 8 60 1 59 22 -1 26 -23 2
-42 6 -42 11 0 4 16 5 36 3 28 -3 35 -1 32 9 -5 14 -32 21 -133 37 l-50 8 56
8 c31 4 69 4 85 0 24 -6 27 -5 17 7 -6 8 -14 31 -18 52 -4 22 -10 35 -14 30
-3 -4 -46 -9 -96 -9 -84 -2 -81 12 3 15 32 1 43 14 20 25 -7 3 6 3 30 0 28 -4
42 -2 42 5 0 7 -7 14 -15 17 -8 4 -12 10 -9 15 3 5 0 17 -6 26 -9 16 -10 15
-5 -4 6 -22 2 -24 -40 -23 -3 0 -19 -7 -36 -16 -17 -8 -33 -14 -35 -11 -6 6
35 32 64 41 41 13 12 26 -46 21 l-57 -5 55 19 c31 11 46 20 33 20 -25 1 -43
21 -18 21 10 0 13 4 8 13 -11 17 -4 50 13 60 8 4 14 14 14 21 0 8 6 19 14 26
11 8 12 18 6 33 -5 12 -16 54 -25 92 -19 79 -46 130 -74 138 -12 3 -20 18 -25
47 -9 58 -26 318 -26 411 0 68 -3 79 -22 93 -18 13 -16 13 8 -1 18 -10 57 -37
88 -61z m586 53 c8 -7 25 -16 38 -19 12 -4 22 -11 22 -16 0 -5 9 -11 19 -15
11 -3 22 -13 25 -21 4 -9 -6 -6 -27 9 -44 33 -94 60 -142 74 l-40 12 45 -5
c25 -4 52 -12 60 -19z m104 -11 c7 -19 2 -18 -19 6 -16 17 -16 20 -3 15 9 -4
19 -13 22 -21z m-79 -44 c23 -9 143 -100 131 -100 -4 0 -25 14 -46 31 -21 17
-65 44 -97 60 -51 26 -45 30 12 9z m145 -9 c22 -16 56 -32 75 -35 19 -4 35
-12 35 -19 0 -8 3 -7 9 2 14 21 36 -60 26 -96 -5 -20 -9 -24 -14 -12 -6 16
-27 42 -49 62 -73 65 -136 127 -129 127 4 0 25 -13 47 -29z m-134 -35 c29 -22
13 -26 -21 -5 -17 11 -23 19 -14 19 8 0 24 -6 35 -14z m49 -26 c3 -6 -1 -7 -9
-4 -18 7 -21 14 -7 14 6 0 13 -4 16 -10z m-757 -122 c1 -111 14 -195 47 -318
5 -18 4 -21 -3 -11 -5 7 -15 11 -21 7 -7 -5 -8 -1 -4 10 4 12 3 15 -5 10 -8
-5 -10 -2 -6 8 3 9 2 16 -3 16 -5 0 -10 9 -11 20 -1 11 -2 28 -3 38 -1 9 -6
20 -11 23 -5 3 -4 17 2 33 5 15 8 62 6 104 -4 63 2 182 8 182 1 0 3 -55 4
-122z m762 108 c31 -2 150 -105 150 -130 0 -5 -26 16 -58 47 -57 54 -68 59
-177 86 -37 9 -36 10 15 4 30 -3 62 -6 70 -7z m-1153 -38 c-3 -7 -5 -2 -5 12
0 14 2 19 5 13 2 -7 2 -19 0 -25z m3274 -50 c11 -14 19 -30 19 -36 0 -5 -37
-33 -82 -61 -46 -28 -94 -59 -108 -69 l-25 -17 21 30 c12 17 24 43 28 59 8 34
119 152 125 133 2 -6 12 -24 22 -39z m-3284 -15 c-3 -10 -5 -2 -5 17 0 19 2
27 5 18 2 -10 2 -26 0 -35z m2193 -29 c0 -2 -9 0 -20 6 -11 6 -20 13 -20 16 0
2 9 0 20 -6 11 -6 20 -13 20 -16z m50 -30 c0 -2 -9 0 -20 6 -11 6 -20 13 -20
16 0 2 9 0 20 -6 11 -6 20 -13 20 -16z m59 -48 c-3 -3 -11 5 -18 17 -13 21
-12 21 5 5 10 -10 16 -20 13 -22z m2961 0 c0 -2 -7 -6 -15 -10 -8 -3 -15 -1
-15 4 0 6 7 10 15 10 8 0 15 -2 15 -4z m-1249 -16 c0 8 5 2 11 -15 11 -30 90
-139 118 -163 12 -10 8 -11 -25 -6 -22 3 -45 14 -52 23 -7 9 -24 28 -38 42
-25 24 -26 27 -10 42 15 16 14 17 -12 17 l-28 1 25 14 25 14 -27 1 c-30 0 -35
9 -16 28 9 9 14 9 20 -1 6 -9 8 -8 9 3z m-1931 -25 c-7 -8 -9 -19 -5 -24 8
-13 44 20 36 34 -2 6 3 4 12 -4 13 -10 14 -17 7 -27 -9 -10 -6 -11 12 -6 21 5
22 4 9 -11 -14 -18 -57 -24 -46 -7 4 7 -2 9 -19 4 -28 -7 -31 1 -20 43 4 13
10 20 16 17 5 -3 4 -11 -2 -19z m3164 -70 c-14 -25 -28 -44 -30 -42 -7 6 13
54 25 62 6 3 11 16 11 29 0 30 14 44 18 17 2 -11 -9 -41 -24 -66z m-1848 -10
c1 -8 -2 -15 -7 -15 -5 0 -9 4 -9 10 0 5 -8 7 -17 3 -15 -5 -14 -3 2 10 21 17
28 15 31 -8z m88 -43 c45 -41 55 -55 37 -49 -4 1 -32 -26 -61 -60 -29 -35 -57
-63 -61 -63 -4 0 -11 -9 -14 -20 -3 -11 -11 -20 -16 -20 -15 0 -99 -82 -99
-96 0 -7 -7 -15 -16 -18 -9 -3 -12 -11 -8 -18 5 -8 2 -9 -12 -4 -10 4 -34 10
-52 13 -18 3 -35 10 -38 14 -3 5 -17 9 -32 9 l-27 1 35 30 c19 17 77 63 129
102 52 39 110 87 129 106 20 20 49 46 64 57 l29 22 -33 27 c-18 15 -26 23 -17
18 9 -4 38 -27 63 -51z m1257 21 l24 -27 -24 15 c-14 9 -27 21 -29 27 -6 19 3
14 29 -15z m-1381 -8 c0 -7 -111 -120 -118 -120 -12 -1 -62 -52 -62 -63 0 -6
-7 -9 -15 -6 -9 4 -15 0 -15 -10 0 -9 -5 -16 -11 -16 -5 0 -7 -4 -4 -10 3 -5
0 -7 -8 -5 -7 3 -24 2 -37 -3 -19 -7 -20 -10 -7 -15 10 -4 17 -2 17 4 0 6 5 7
11 4 15 -10 6 -16 -33 -22 -42 -6 -50 -13 -15 -13 14 0 29 -4 32 -10 3 -6 -1
-7 -10 -4 -11 5 -14 2 -9 -10 9 -22 -3 -20 -36 8 l-29 23 27 13 27 12 -30 13
c-16 7 -28 14 -25 15 3 1 16 3 30 6 19 3 21 2 10 -6 -13 -8 -13 -10 2 -10 10
0 19 11 23 31 4 19 10 27 14 20 5 -8 15 -6 33 9 15 11 31 20 37 20 6 0 11 5
11 10 0 6 6 10 13 10 7 0 21 14 32 32 15 26 19 29 25 14 5 -14 14 -9 55 32 46
46 65 60 65 47z m1840 -45 c0 -5 -4 -10 -10 -10 -5 0 -10 5 -10 10 0 6 5 10
10 10 6 0 10 -4 10 -10z m-1933 -6 c-3 -3 -12 -4 -19 -1 -8 3 -5 6 6 6 11 1
17 -2 13 -5z m939 -64 l42 -38 -41 -11 c-49 -12 -60 -8 -18 7 37 13 41 25 6
16 -15 -4 -25 -2 -25 5 0 6 -8 11 -18 11 -23 0 -42 19 -42 43 0 29 46 13 96
-33z m-3717 19 c-8 -5 -13 -22 -12 -41 l2 -33 -12 28 c-7 15 -16 24 -20 21 -4
-4 -7 -2 -7 5 0 7 9 15 20 18 11 3 20 10 20 15 0 5 5 6 11 2 8 -4 7 -9 -2 -15z
m4691 16 c0 -11 -24 -55 -30 -55 -4 0 -5 14 -2 30 2 17 10 30 18 30 8 0 14 -2
14 -5z m-4762 -102 c-10 -9 -24 -12 -41 -7 -36 9 -34 25 2 18 17 -4 32 -1 36
6 5 9 1 10 -16 5 -23 -7 -23 -7 -4 8 18 14 21 14 29 0 5 -10 3 -20 -6 -30z
m4210 36 c17 -6 33 -17 36 -25 8 -21 -50 -19 -62 3 -6 9 -29 19 -53 23 l-44 7
46 2 c25 0 60 -4 77 -10z m-148 -9 c0 -5 -2 -10 -4 -10 -3 0 -8 5 -11 10 -3 6
-1 10 4 10 6 0 11 -4 11 -10z m644 -30 c-28 -43 -38 -51 -26 -22 11 27 36 62
45 62 4 0 -5 -18 -19 -40z m-870 -4 c-56 -25 -82 -28 -44 -7 19 11 44 20 55
20 15 0 12 -3 -11 -13z m-559 -6 c-3 -5 -2 -10 2 -10 5 0 9 -9 10 -20 1 -11
-3 -20 -9 -20 -6 0 -8 -12 -4 -30 3 -16 2 -30 -2 -30 -10 0 -62 -78 -62 -92 0
-5 -8 -22 -18 -36 -10 -15 -21 -35 -25 -44 -5 -15 -9 -15 -47 3 l-41 20 33 46
c18 25 41 51 51 57 9 6 17 16 17 22 0 5 13 24 29 40 16 17 33 43 37 60 9 37
13 44 25 44 6 0 7 -4 4 -10z m-3155 -96 c0 -6 -6 -11 -12 -11 -9 0 -14 19 -15
56 l-2 56 15 -45 c7 -25 14 -50 14 -56z m4148 79 c2 -8 -5 -13 -20 -12 -21 0
-22 1 -3 8 19 8 18 9 -5 14 -25 5 -25 5 -1 4 14 -1 26 -8 29 -14z m32 -56 c0
-9 -50 -1 -60 9 -2 3 2 9 9 14 15 9 51 -8 51 -23z m390 24 c0 -6 -4 -13 -10
-16 -5 -3 -10 1 -10 9 0 9 5 16 10 16 6 0 10 -4 10 -9z m-4091 -87 c46 -10 80
-43 86 -82 3 -20 11 -65 16 -99 14 -82 11 -89 -30 -59 -32 24 -35 24 -47 8 -8
-10 -13 -12 -14 -5 0 13 -60 32 -115 37 -38 3 -76 31 -69 50 3 7 -2 19 -11 26
-8 7 -15 19 -15 26 0 24 -29 3 -60 -43 -22 -33 -30 -56 -30 -89 0 -28 4 -43
10 -39 13 8 13 -15 0 -35 -14 -23 -19 -9 -22 62 -2 57 1 72 23 102 39 54 76
81 94 66 12 -10 15 -10 15 0 0 7 11 21 25 32 14 11 22 25 18 31 -4 6 0 8 10 4
9 -3 16 -3 16 1 -1 4 -1 10 0 13 1 7 60 3 100 -7z m3733 -14 c12 -16 30 -32
40 -36 21 -6 24 -24 5 -24 -7 0 -25 6 -40 13 -20 9 -25 17 -20 35 4 19 1 22
-23 22 -23 0 -26 2 -14 10 23 15 27 13 52 -20z m-4285 -12 c-3 -8 -6 -5 -6 6
-1 11 2 17 5 13 3 -3 4 -12 1 -19z m4653 12 c0 -5 -4 -10 -10 -10 -5 0 -10 5
-10 10 0 6 5 10 10 10 6 0 10 -4 10 -10z m-1127 -75 c15 -19 36 -37 47 -40 11
-4 20 -11 20 -16 0 -16 -23 -10 -46 12 l-21 20 4 -25 c5 -26 -10 -36 -22 -16
-4 6 -10 8 -15 5 -4 -3 -6 5 -3 17 3 16 2 19 -5 10 -6 -10 -13 -1 -25 30 -10
24 -17 52 -17 62 0 16 2 16 28 -4 15 -12 39 -37 55 -55z m727 40 c0 -17 -11
-20 -25 -6 -6 5 -23 11 -40 14 -21 3 -16 4 18 6 36 1 47 -3 47 -14z m-164 -22
c-10 -11 -36 -12 -36 -2 0 5 10 9 22 9 12 0 18 -3 14 -7z m435 -21 c-31 -5
-111 7 -111 16 0 4 30 3 68 -3 37 -5 56 -12 43 -13z m-1064 -81 c10 -9 11 -17
4 -24 -14 -14 -20 -7 -26 34 -3 19 -2 27 2 19 3 -8 13 -21 20 -29z m1158 -71
c-3 -5 -11 -10 -16 -10 -6 0 -7 5 -4 10 3 6 11 10 16 10 6 0 7 -4 4 -10z
m-1220 -89 c147 -104 310 -262 300 -289 -3 -7 -1 -10 5 -7 5 3 24 -11 42 -32
18 -20 49 -53 68 -72 19 -20 57 -65 85 -100 27 -36 51 -59 53 -52 5 15 32 -5
32 -24 0 -7 10 -23 23 -36 52 -55 106 -126 120 -161 9 -21 21 -38 27 -38 7 0
3 14 -9 33 -11 19 -18 37 -14 41 4 3 -3 13 -15 22 -12 8 -22 20 -22 26 0 6 7
5 17 -3 14 -12 16 -12 11 1 -2 8 -15 16 -27 16 -27 2 -42 21 -33 42 3 9 1 13
-5 9 -6 -4 -9 2 -6 16 2 12 4 51 6 87 1 36 7 65 12 65 6 0 26 -13 45 -28 19
-16 26 -24 14 -18 -19 9 -20 7 -16 -20 4 -30 35 -42 45 -16 3 6 6 1 6 -11 1
-16 -6 -26 -19 -29 -11 -3 -20 -10 -20 -15 0 -5 9 -6 20 -3 27 9 26 -12 -2
-34 -21 -18 -20 -59 2 -46 5 3 10 1 10 -4 0 -6 -4 -11 -10 -11 -5 0 -10 -5
-10 -10 0 -6 12 -4 29 4 26 14 30 14 45 -3 22 -24 20 -32 -6 -26 -20 5 -23 2
-23 -27 0 -18 6 -48 14 -66 13 -30 15 -31 27 -15 13 17 14 17 8 1 -4 -11 -1
-18 6 -18 7 0 10 -7 6 -15 -3 -9 2 -20 13 -27 15 -9 17 -17 11 -39 -7 -22 -5
-28 10 -32 13 -3 16 -11 13 -29 -3 -15 2 -31 11 -41 18 -18 21 -37 6 -37 -5 0
-10 -4 -10 -9 0 -5 7 -8 16 -7 16 1 25 -32 28 -101 1 -16 4 -19 14 -11 9 8 10
14 2 22 -5 5 -10 19 -9 31 0 19 0 19 9 -1 10 -26 30 -41 30 -23 0 7 3 9 7 6 3
-4 -2 -16 -11 -26 -21 -23 -70 -124 -80 -165 -10 -39 -36 -77 -49 -69 -6 4 -7
1 -2 -6 4 -8 -3 -23 -19 -40 -21 -22 -36 -28 -79 -30 -28 -1 -78 -13 -109 -25
-32 -13 -58 -22 -58 -20 0 2 9 12 21 23 13 12 17 21 10 26 -6 3 -11 1 -11 -4
0 -6 -7 -11 -16 -11 -9 0 -12 5 -8 12 7 11 7 55 0 103 -1 10 -13 20 -25 22
-15 2 -20 -1 -15 -9 5 -8 2 -9 -9 -5 -10 3 -17 2 -17 -3 0 -6 -4 -10 -10 -10
-5 0 25 35 66 78 42 42 80 76 86 74 5 -1 7 2 3 7 -7 13 24 63 35 56 5 -3 12 0
16 6 4 8 3 9 -4 5 -17 -10 -16 -7 19 64 17 36 35 89 41 120 5 30 13 69 17 86
6 21 4 37 -5 49 -8 10 -14 15 -14 11 0 -4 -17 14 -38 41 -21 26 -55 57 -76 68
-26 14 -39 29 -43 48 -3 16 -21 39 -42 55 -20 14 -61 52 -91 83 -30 31 -71 67
-90 79 -19 13 -43 33 -53 44 -10 12 -16 15 -12 9 4 -8 0 -13 -10 -13 -12 0
-14 4 -5 19 5 11 15 23 20 26 6 3 10 14 10 23 -1 15 -2 15 -10 1 -18 -31 -82
-5 -153 63 -24 24 -78 74 -120 111 -44 39 -74 73 -70 79 4 7 0 9 -10 5 -10 -4
-16 -2 -14 6 1 6 -8 13 -21 15 -12 2 -20 8 -17 13 3 5 -9 18 -27 29 -41 25
-36 25 25 2 26 -10 44 -22 40 -27 -5 -4 -3 -5 4 -1 10 6 216 -111 268 -153 12
-9 3 1 -18 22 -21 20 -42 37 -46 37 -4 0 -17 9 -28 20 -12 11 -47 32 -78 48
-31 16 -56 33 -56 38 1 5 -3 9 -8 9 -5 0 -32 15 -60 33 -28 19 -70 41 -91 49
-46 19 -52 40 -12 45 29 4 84 -22 167 -81z m-2670 59 c3 -5 1 -10 -4 -10 -6 0
-11 5 -11 10 0 6 2 10 4 10 3 0 8 -4 11 -10z m-596 -21 c40 -14 40 -24 -1 -25
-18 -1 -40 6 -52 17 l-20 19 21 0 c11 0 34 -5 52 -11z m4521 2 c0 -17 -21 -24
-33 -11 -9 10 -9 11 1 6 6 -4 12 -2 12 3 0 6 5 11 10 11 6 0 10 -4 10 -9z
m-6702 -33 c22 -22 14 -39 -15 -33 -16 3 -22 2 -15 -1 6 -3 12 -10 12 -16 0
-6 -8 -4 -18 5 -10 10 -23 17 -28 17 -5 0 -10 9 -10 20 0 16 7 20 31 20 17 0
36 -5 43 -12z m6722 -4 c0 -8 15 -21 34 -29 19 -8 37 -19 41 -25 3 -5 30 -26
60 -46 63 -41 114 -96 191 -206 53 -76 154 -264 154 -290 1 -7 7 -31 15 -53
12 -35 12 -38 -1 -21 -7 11 -14 27 -14 37 0 9 -6 19 -14 22 -8 3 -17 19 -21
36 -4 17 -15 37 -24 43 -10 7 -19 18 -20 23 -5 39 -17 51 -44 46 -5 -1 -11 8
-14 19 -3 11 -12 20 -19 20 -8 0 -20 12 -27 28 -6 15 -14 29 -17 32 -13 12
-87 107 -102 130 -9 14 -48 58 -87 99 -66 68 -84 90 -62 76 5 -3 12 -1 15 4 4
5 -5 8 -18 7 -18 -2 -23 1 -19 12 5 12 2 12 -16 2 -13 -6 -25 -9 -28 -6 -3 3
5 10 18 15 21 8 22 10 7 16 -10 4 -15 11 -12 16 9 14 24 10 24 -7z m-1172 -26
c-6 -18 -28 -21 -28 -4 0 9 7 16 16 16 9 0 14 -5 12 -12z m-2892 -125 c-10
-10 -19 5 -10 18 6 11 8 11 12 0 2 -7 1 -15 -2 -18z m-253 -140 c-5 -12 -3
-14 7 -8 9 6 11 4 5 -4 -5 -9 -11 -9 -17 -3 -6 6 -7 15 -4 21 11 17 16 13 9
-6z m-143 -3 c0 -5 -7 -10 -15 -10 -8 0 -15 5 -15 10 0 6 7 10 15 10 8 0 15
-4 15 -10z m3490 -93 c0 -2 -12 -14 -27 -28 l-28 -24 24 28 c23 25 31 32 31
24z m-1860 -112 c53 -27 65 -41 26 -31 -17 4 -38 -5 -78 -33 -39 -27 -58 -35
-64 -27 -5 6 -8 10 -7 7 3 -6 -25 -31 -36 -31 -5 0 -15 -8 -20 -17 -10 -17
-10 -16 -11 2 0 12 -3 16 -8 9 -4 -6 -15 -10 -25 -8 -15 2 -16 0 -6 -12 10
-13 6 -18 -13 -15 -4 0 -32 -25 -64 -57 l-56 -57 53 65 c76 92 131 150 140
145 3 -3 6 2 5 9 -1 18 72 75 97 76 10 0 40 -11 67 -25z m-1557 -147 c9 -21
14 -38 11 -38 -5 0 -34 64 -34 76 0 12 7 0 23 -38z m2047 -116 c3 -3 -4 -2
-15 1 -19 7 -19 6 -2 -7 26 -20 21 -38 -17 -63 -19 -12 -40 -37 -46 -55 -7
-18 -27 -44 -46 -58 -18 -14 -34 -33 -34 -43 0 -10 -7 -20 -15 -23 -8 -4 -15
-11 -15 -16 0 -5 -10 -18 -22 -29 -13 -10 -17 -18 -10 -19 28 0 9 -20 -20 -20
-30 0 -31 -1 -12 -15 15 -11 16 -15 4 -16 -8 -1 -18 -1 -22 0 -5 0 -8 -10 -8
-24 0 -18 -7 -28 -25 -35 -17 -6 -25 -17 -25 -32 0 -17 3 -19 9 -9 6 9 11 10
15 2 4 -6 4 -11 -1 -11 -4 0 -21 -11 -37 -25 -26 -22 -27 -30 -3 -26 4 0 7 -5
8 -11 0 -7 2 -25 4 -40 2 -16 -1 -28 -6 -28 -5 0 -9 9 -9 21 0 11 -5 19 -11
17 -12 -4 -12 -3 -3 -70 4 -27 10 -48 15 -48 5 0 9 6 9 14 0 8 7 17 16 20 8 3
12 10 9 16 -4 6 8 10 29 10 25 0 36 5 36 14 0 25 20 28 29 5 7 -21 9 -20 15
14 7 36 26 52 26 22 0 -8 5 -15 11 -15 6 0 9 6 6 14 -7 16 11 36 33 36 8 0 20
10 25 23 6 12 17 22 25 22 8 1 14 6 12 13 -1 7 9 17 23 22 18 7 25 17 25 35 0
14 4 25 9 25 12 0 21 -54 10 -61 -6 -3 -9 -10 -8 -15 3 -19 -14 -54 -23 -48
-5 3 -8 -3 -6 -13 2 -11 -3 -27 -10 -35 -7 -9 -17 -29 -21 -46 -8 -26 -7 -29
9 -25 10 3 20 0 24 -5 9 -14 -44 -103 -56 -96 -6 4 -8 3 -5 -3 4 -6 -10 -30
-31 -54 -20 -24 -28 -37 -17 -29 32 24 68 69 100 124 17 28 40 67 53 86 12 19
20 42 16 50 -3 8 -2 11 2 7 4 -4 20 4 34 18 15 14 49 34 76 45 27 10 41 19 30
20 -14 0 -16 3 -7 13 6 8 8 16 5 19 -3 3 8 20 25 37 17 18 31 41 31 52 0 11 7
22 15 25 8 4 15 12 15 19 0 7 9 24 21 39 11 14 17 30 14 36 -3 6 1 13 10 16
22 9 45 65 32 82 -7 9 -4 12 9 12 16 0 17 2 4 11 -11 8 -1 9 35 4 28 -4 113
-15 190 -26 77 -10 153 -22 168 -26 l28 -9 -43 -84 c-48 -95 -159 -216 -262
-284 -31 -21 -55 -41 -52 -44 4 -3 12 0 18 6 7 7 17 12 22 12 6 0 1 -7 -11
-15 -12 -8 -28 -13 -35 -10 -8 3 -46 -22 -89 -58 -103 -88 -169 -173 -153
-199 5 -7 3 -8 -6 -3 -10 6 -12 4 -7 -9 4 -9 3 -15 -2 -12 -11 7 -29 -57 -25
-91 3 -19 2 -23 -4 -10 -5 13 -12 -1 -26 -53 -10 -39 -19 -77 -20 -83 -1 -7
-5 -17 -8 -23 -9 -13 1 -54 13 -54 5 0 9 5 9 11 0 8 5 8 15 -1 8 -7 15 -8 15
-2 0 5 10 12 22 16 18 4 20 8 10 18 -10 10 -15 10 -22 -2 -14 -21 -7 37 9 74
9 22 15 26 23 18 8 -8 8 -15 1 -24 -13 -17 -25 -50 -15 -45 4 3 18 0 32 -6 38
-15 70 -16 70 0 0 7 -3 12 -7 12 -29 -5 -47 25 -57 97 -4 30 -2 45 8 53 12 10
13 8 9 -8 -5 -19 -1 -21 40 -21 38 0 46 3 44 18 -1 14 -7 17 -29 14 -15 -2
-28 0 -28 4 0 13 49 34 55 24 3 -5 25 -7 49 -5 38 3 45 0 50 -17 5 -22 -26
-103 -36 -93 -3 3 -11 -2 -18 -11 -11 -13 -11 -17 -1 -24 8 -4 9 -10 3 -14
-12 -7 -36 49 -27 63 3 6 1 11 -4 11 -14 0 -14 -47 -1 -55 6 -3 10 -13 10 -21
0 -9 -5 -12 -12 -8 -7 4 -8 3 -4 -5 4 -6 11 -9 16 -6 10 6 -46 -105 -60 -119
-7 -7 -10 -6 -10 1 0 6 7 16 15 23 8 7 15 17 15 23 0 5 -9 -2 -21 -17 -11 -14
-18 -30 -14 -36 6 -10 -29 -60 -105 -148 -41 -48 -45 -50 -62 -35 -19 17 -25
38 -7 28 8 -6 -1 17 -19 45 -10 15 -19 -27 -10 -44 8 -15 8 -21 -2 -24 -18 -6
-42 -34 -61 -69 -10 -17 -50 -53 -90 -81 -41 -28 -81 -59 -90 -70 -41 -48 -67
-96 -62 -111 3 -11 2 -12 -4 -4 -6 9 -22 1 -56 -28 -40 -35 -46 -44 -41 -67 4
-15 11 -32 16 -39 9 -12 6 -18 -29 -57 -10 -11 -9 -15 3 -20 25 -9 34 -7 34 8
0 8 5 18 11 22 7 4 9 0 5 -14 -8 -24 12 -41 25 -21 7 12 9 12 9 0 0 -8 8 -19
17 -26 15 -11 14 -12 -10 -10 -33 4 -97 -13 -97 -25 0 -5 30 -7 67 -5 51 3 72
0 84 -11 10 -9 23 -14 31 -12 7 1 38 -21 68 -50 30 -28 60 -52 66 -52 6 0 23
9 38 21 31 24 27 26 119 -61 61 -57 71 -74 57 -100 -13 -25 -1 -51 34 -70 17
-8 26 -22 26 -37 0 -14 6 -23 16 -23 8 0 30 -14 47 -31 17 -18 33 -27 35 -20
2 6 8 11 14 11 6 0 7 -7 4 -17 -9 -23 32 -65 57 -57 12 4 24 -1 33 -15 9 -12
24 -21 35 -21 10 0 19 -5 19 -11 0 -5 -6 -7 -12 -4 -7 4 -4 -1 7 -10 12 -10
29 -14 44 -10 22 6 40 -7 41 -26 0 -7 -445 -2 -555 6 -33 2 -107 6 -165 10
-57 3 -107 9 -110 14 -9 13 -40 9 -40 -6 0 -12 -2 -12 -14 0 -9 8 -30 13 -55
11 -23 -1 -41 1 -41 4 0 4 -31 6 -70 6 -38 -1 -70 3 -70 8 0 6 -13 7 -31 3
-23 -5 -30 -4 -24 5 4 7 -4 4 -19 -5 -15 -10 -29 -15 -33 -11 -3 3 -12 1 -20
-6 -11 -8 -12 -7 -7 6 8 21 -19 22 -40 0 -10 -9 -24 -13 -36 -9 -11 4 -20 2
-20 -4 0 -6 -7 -8 -15 -5 -8 4 -15 1 -15 -6 0 -9 -4 -9 -17 1 -18 15 -54 13
-65 -4 -4 -6 -13 -4 -24 8 -13 13 -19 14 -22 5 -3 -7 1 -16 8 -20 7 -5 2 -7
-14 -7 -14 0 -23 3 -20 8 3 5 1 9 -4 9 -6 0 -13 -8 -16 -17 -6 -15 -8 -15 -16
-3 -8 12 -10 12 -10 1 0 -10 -9 -12 -33 -8 -19 3 -40 1 -48 -4 -9 -6 2 -9 34
-9 31 0 47 -4 47 -12 0 -9 4 -8 10 2 9 13 10 13 10 0 0 -12 2 -12 8 -2 6 9 26
11 78 6 38 -4 92 -6 119 -6 35 0 43 -2 26 -7 -30 -8 -38 -28 -14 -34 39 -11
99 -20 123 -19 21 1 19 -1 -9 -11 -19 -8 -36 -18 -38 -24 -5 -13 74 -59 116
-68 16 -3 40 -15 52 -26 13 -11 31 -18 40 -16 25 7 17 -19 -13 -43 -49 -38
-146 -49 -773 -91 -220 -15 -327 -19 -563 -24 -106 -2 -198 -7 -204 -11 -7 -4
-14 -2 -16 5 -3 8 -7 9 -11 3 -3 -5 -44 -13 -91 -17 -151 -12 -190 -12 -190
-1 0 6 -5 4 -10 -4 -6 -10 -10 -11 -10 -2 0 6 -4 12 -10 12 -5 0 -10 -7 -10
-15 0 -19 -23 -15 -32 5 -5 12 -7 12 -7 -2 -1 -20 -21 -25 -22 -5 0 10 -2 10
-6 0 -2 -8 -21 -13 -41 -12 -20 0 -31 3 -24 6 6 2 12 9 12 14 0 16 -21 9 -41
-13 l-18 -23 -1 25 c-1 22 -2 22 -9 6 -5 -13 -20 -20 -45 -23 -22 -2 -35 0
-32 6 13 20 -6 43 -30 37 -16 -4 -23 -2 -22 5 2 6 -4 13 -12 14 -8 2 -23 6
-32 10 -12 5 -18 2 -19 -6 0 -8 -7 6 -16 31 -22 67 -23 218 0 250 9 13 17 32
17 41 0 9 14 36 32 60 38 52 70 136 62 162 -9 28 15 113 41 143 12 14 20 34
18 44 -3 10 2 31 10 46 49 94 334 421 351 404 17 -17 53 -11 84 15 17 14 36
25 43 25 13 0 136 142 207 240 18 25 54 74 80 109 93 126 98 143 64 183 -14
16 -10 29 41 132 60 124 113 186 234 276 33 25 80 71 104 103 23 32 84 92 136
134 111 89 171 156 214 237 46 88 46 88 78 72 14 -8 37 -26 50 -40 13 -14 28
-23 34 -19 6 3 7 1 3 -5 -4 -6 1 -28 10 -49 8 -21 29 -80 46 -131 16 -52 32
-91 35 -88 3 3 -6 43 -20 88 -14 46 -28 107 -31 136 -6 50 -6 53 13 47 16 -5
18 -2 14 16 -5 19 -3 21 13 14 10 -4 35 -10 54 -13 37 -5 60 -18 60 -34 0 -6
-7 -7 -16 -4 -14 5 -15 4 -4 -9 14 -17 35 -21 25 -5 -3 6 3 10 14 10 17 0 21
6 21 31 0 29 -2 31 -28 27 -30 -4 -41 16 -15 26 7 3 13 1 13 -4 0 -6 5 -10 11
-10 5 0 7 5 3 11 -4 7 -1 10 7 7 8 -3 22 8 32 25 10 16 21 26 25 23 3 -4 2
-10 -3 -14 -11 -8 -37 -62 -30 -62 2 0 21 17 42 38 23 22 50 38 68 40 33 4 74
45 75 77 0 13 3 16 11 8 7 -7 4 -21 -11 -46 -14 -24 -17 -37 -10 -42 7 -4 14
2 17 14 4 15 11 20 23 16 10 -3 21 -1 25 5 3 5 18 11 33 11 27 1 27 1 -3 8
-20 4 -31 2 -33 -6 -7 -26 -18 -12 -14 17 4 26 7 29 19 18 12 -10 17 -9 24 5
6 9 21 17 34 17 18 0 25 5 25 20 0 15 7 20 26 20 31 0 64 17 64 32 0 6 -7 16
-17 23 -14 10 -10 13 26 19 41 6 41 6 26 30 -15 23 -15 25 7 32 13 4 26 7 30
6 4 -1 5 6 1 16 -5 14 -3 15 8 5 7 -7 18 -13 24 -13 5 0 3 4 -5 10 -8 5 -11
12 -7 16 3 4 13 1 22 -6 9 -7 18 -11 21 -8 8 9 -47 40 -62 34 -8 -3 -14 -1
-14 5 0 6 -10 20 -22 30 -13 11 31 -8 97 -42 66 -34 122 -65 125 -67z m2830
62 c14 -16 2 -9 -27 16 -29 24 -53 45 -53 47 0 8 55 -35 80 -63z m-1005 46 c3
-5 1 -10 -4 -10 -6 0 -11 5 -11 10 0 6 2 10 4 10 3 0 8 -4 11 -10z m995 -95
c0 -1 -11 -5 -25 -7 -20 -4 -23 -2 -14 8 8 10 39 10 39 -1z m69 -90 c0 -11 -7
-2 -15 20 -17 47 -17 46 -14 65 3 18 28 -57 29 -85z m-4829 64 c0 -5 -4 -9
-10 -9 -5 0 -10 7 -10 16 0 8 5 12 10 9 6 -3 10 -10 10 -16z m3820 -9 c0 -21
-15 -27 -25 -10 -7 12 2 30 16 30 5 0 9 -9 9 -20z m-2170 0 c0 -5 -5 -10 -11
-10 -5 0 -7 5 -4 10 3 6 8 10 11 10 2 0 4 -4 4 -10z m3165 -141 l7 -34 -26 30
c-14 17 -25 38 -26 47 0 9 -4 20 -10 23 -5 3 -10 25 -10 48 l0 42 29 -61 c16
-34 32 -76 36 -95z m-658 51 c-11 -13 -10 -13 6 -1 15 12 22 10 57 -13 24 -16
37 -31 34 -40 -5 -14 20 -46 37 -46 6 0 7 -5 4 -10 -4 -6 -1 -9 7 -8 7 2 12
-3 10 -10 -1 -8 2 -10 8 -7 7 4 1 20 -16 43 l-27 37 41 -40 c23 -21 42 -42 42
-45 0 -5 -38 -11 -87 -14 -11 -1 -19 -4 -17 -8 2 -3 -10 -11 -28 -17 -40 -14
-41 -14 -35 3 3 8 -1 17 -9 20 -9 3 -13 10 -10 15 3 5 -1 14 -9 21 -8 7 -15
18 -15 25 0 13 -45 101 -62 123 -6 6 -7 12 -4 12 4 0 -6 11 -21 25 -22 20 -14
17 39 -12 56 -32 65 -40 55 -53z m583 86 c0 -3 -4 -8 -10 -11 -5 -3 -10 -1
-10 4 0 6 5 11 10 11 6 0 10 -2 10 -4z m370 -40 c0 -2 -9 -6 -20 -9 -11 -3
-20 -1 -20 4 0 5 9 9 20 9 11 0 20 -2 20 -4z m-3570 -52 c0 -8 -5 -12 -10 -9
-6 4 -8 11 -5 16 9 14 15 11 15 -7z m3310 -15 c0 -15 63 -143 71 -147 5 -2 5
-10 2 -19 -4 -9 -2 -14 3 -10 6 3 11 -4 11 -15 1 -11 9 -28 17 -37 9 -10 13
-21 9 -24 -3 -4 -1 -7 6 -7 7 0 9 -5 6 -10 -4 -6 -11 -8 -16 -5 -5 4 -9 1 -9
-4 0 -6 12 -11 28 -11 15 0 34 -5 42 -10 13 -9 12 -12 -4 -21 -15 -9 -16 -13
-5 -21 10 -7 8 -8 -9 -5 -18 4 -21 3 -12 -8 13 -15 53 -8 43 9 -3 6 -2 7 2 3
24 -21 12 -34 -31 -32 -35 1 -41 -1 -33 -12 9 -9 8 -17 -1 -28 -7 -8 -8 -15
-3 -15 5 0 16 9 26 20 9 11 22 20 27 20 6 0 3 -8 -7 -18 -23 -24 -99 -69 -89
-54 10 16 0 15 -32 -4 l-27 -16 28 24 c30 26 35 48 12 48 -8 0 -12 -6 -9 -14
3 -7 -1 -16 -8 -19 -10 -3 -15 5 -16 28 -2 30 0 33 19 28 18 -5 21 -3 16 10
-9 24 2 47 19 40 11 -4 13 8 12 59 -1 42 -3 55 -8 38 -6 -22 -8 -19 -15 20 -4
25 -17 54 -29 66 -46 46 -56 68 -56 122 0 33 4 51 10 47 6 -3 10 -11 10 -16z
m340 11 c0 -5 11 -10 24 -10 17 0 26 -7 30 -23 5 -23 21 -34 86 -58 55 -20 65
-51 14 -41 -15 3 -21 8 -15 12 7 4 -2 7 -19 7 -19 0 -38 8 -52 24 -13 14 -42
34 -65 44 -46 19 -50 24 -31 43 15 15 28 16 28 2z m-5197 -40 c-8 -29 -17 -32
-31 -9 -7 11 -8 19 -2 19 5 0 10 -6 10 -12 0 -7 5 -5 11 5 13 23 18 22 12 -3z
m1434 -42 c-3 -8 -6 -5 -6 6 -1 11 2 17 5 13 3 -3 4 -12 1 -19z m-3187 -29 c0
-6 -7 -6 -20 1 -11 6 -20 15 -20 21 0 6 7 6 20 -1 11 -6 20 -15 20 -21z m2701
-2 c-10 -9 -11 -8 -5 6 3 10 9 15 12 12 3 -3 0 -11 -7 -18z m429 13 c0 -5 -4
-10 -10 -10 -5 0 -10 5 -10 10 0 6 5 10 10 10 6 0 10 -4 10 -10z m40 0 c0 -5
-4 -10 -10 -10 -5 0 -10 5 -10 10 0 6 5 10 10 10 6 0 10 -4 10 -10z m3885 -30
c-3 -5 2 -10 11 -10 10 0 15 -3 11 -6 -3 -3 -15 -3 -28 1 -17 6 -19 9 -8 16
18 11 22 11 14 -1z m-4041 -49 c-8 -9 -22 12 -17 26 6 15 7 14 13 -3 4 -10 6
-21 4 -23z m-74 -1 c0 -5 -4 -10 -10 -10 -5 0 -10 5 -10 10 0 6 5 10 10 10 6
0 10 -4 10 -10z m0 -30 c0 -5 -7 -10 -16 -10 -8 0 -12 5 -9 10 3 6 10 10 16
10 5 0 9 -4 9 -10z m826 -25 c-6 -17 -26 -20 -26 -4 0 5 5 7 10 4 6 -3 10 4
11 17 0 13 3 17 6 10 3 -7 2 -19 -1 -27z m-34 -49 c-2 -5 -9 -1 -14 8 -5 9 -6
21 -2 28 9 14 25 -22 16 -36z m2954 -29 c1 -15 -1 -26 -4 -23 -3 3 -12 0 -20
-7 -12 -10 -16 -9 -20 1 -3 10 -8 9 -23 -4 -10 -9 -19 -22 -19 -28 0 -6 7 -3
15 8 7 10 18 15 24 11 16 -9 14 -25 -3 -25 -7 0 -19 -7 -26 -15 -11 -13 -15
-13 -21 -3 -7 10 -12 9 -26 -4 -16 -17 -16 -18 2 -18 17 0 17 -2 5 -10 -8 -5
-23 -7 -32 -4 -12 3 -18 0 -18 -10 0 -9 5 -16 11 -16 5 0 7 -5 4 -10 -5 -8
-11 -7 -21 1 -12 10 -14 10 -12 -1 2 -7 -3 -15 -9 -17 -7 -3 -13 3 -13 11 0
15 -2 15 -25 0 -14 -9 -25 -21 -24 -28 0 -7 2 -6 6 2 6 15 29 16 39 0 5 -7 2
-8 -7 -3 -8 4 -4 -2 9 -14 12 -12 20 -26 17 -32 -10 -15 -57 -10 -76 7 -16 15
-20 15 -41 0 -12 -9 -17 -16 -10 -16 7 0 10 -5 6 -11 -5 -8 -9 -8 -14 1 -5 9
-9 9 -14 1 -4 -6 -17 -16 -29 -22 -12 -6 -4 6 18 26 22 20 40 42 40 48 0 7 27
26 59 42 61 31 76 42 159 123 26 25 47 42 47 37 0 -6 5 -2 11 8 5 9 7 22 4 27
-3 6 -3 15 1 21 9 16 28 -18 30 -54z m-2876 -12 c-6 -15 -13 -26 -15 -23 -3 2
1 19 8 37 6 17 13 28 15 23 1 -5 -2 -22 -8 -37z m-2250 -30 c0 -2 -9 -9 -19
-14 -14 -8 -20 -7 -25 4 -4 11 2 15 19 15 14 0 25 -2 25 -5z m2240 -12 c-8 -3
-25 -15 -37 -26 -20 -17 -23 -18 -23 -4 0 19 27 37 55 36 14 0 16 -2 5 -6z
m454 -38 c-9 -14 -18 -25 -21 -25 -5 0 5 18 20 38 17 22 18 13 1 -13z m2362
-51 c-3 -9 -6 -23 -6 -32 0 -13 -3 -12 -14 4 -10 13 -11 23 -4 31 15 18 31 16
24 -3z m-2906 -15 c0 -6 -4 -8 -9 -5 -5 3 -12 -6 -15 -19 -6 -24 -26 -27 -26
-4 0 6 4 8 9 5 5 -3 12 6 15 19 6 24 26 27 26 4z m441 -2 c-6 -8 -7 -18 -3
-22 4 -5 1 -5 -6 -1 -10 6 -10 11 -1 22 6 8 14 14 16 14 3 0 0 -6 -6 -13z
m-86 -27 c-3 -5 4 -10 17 -11 19 -1 17 -3 -9 -11 -47 -15 -46 -48 1 -48 25 0
35 -5 39 -20 6 -23 -8 -27 -17 -5 -3 8 -17 15 -32 15 -17 0 -28 6 -31 19 -5
19 -33 19 -33 -1 0 -5 6 -6 13 -2 7 4 8 3 4 -2 -5 -5 -16 -9 -25 -9 -9 0 -17
-4 -18 -10 0 -5 -4 -18 -8 -28 -5 -10 -2 -26 8 -41 15 -23 14 -25 -5 -31 -21
-7 -53 21 -43 37 3 4 -2 5 -12 1 -15 -5 -15 -7 0 -15 15 -8 14 -12 -5 -39 -12
-17 -18 -33 -14 -37 3 -4 11 1 16 11 12 20 28 21 51 3 21 -16 36 -76 19 -76
-6 0 -11 7 -11 15 0 18 -17 20 -23 3 -2 -8 -8 -9 -13 -4 -5 5 -4 11 4 13 16 6
15 28 -2 42 -10 9 -15 8 -20 -4 -3 -8 -13 -15 -22 -15 -14 0 -15 7 -9 48 6 41
15 55 73 111 37 34 76 72 86 82 21 21 31 25 21 9z m2505 -5 c0 -2 -6 -5 -13
-8 -8 -3 -14 1 -14 8 0 7 6 11 14 8 7 -3 13 -6 13 -8z m-2406 -42 c-30 -57
-29 -57 -31 -26 -1 16 8 34 25 49 15 13 28 24 28 24 1 0 -9 -21 -22 -47z
m2359 27 c3 -11 1 -20 -4 -20 -5 0 -9 9 -9 20 0 11 2 20 4 20 2 0 6 -9 9 -20z
m-2413 -20 c12 -8 9 -10 -12 -10 -16 0 -28 5 -28 10 0 13 20 13 40 0z m2415
-20 c-3 -5 -11 -10 -16 -10 -6 0 -7 5 -4 10 3 6 11 10 16 10 6 0 7 -4 4 -10z
m-2503 -51 c-3 -20 -9 -29 -20 -27 -20 4 -28 28 -9 28 8 0 17 7 21 15 9 24 13
17 8 -16z m2401 14 c-7 -2 -19 -2 -25 0 -7 3 -2 5 12 5 14 0 19 -2 13 -5z
m-2366 -65 c-3 -7 -5 -2 -5 12 0 14 2 19 5 13 2 -7 2 -19 0 -25z m-2937 -3 c0
-8 -2 -15 -4 -15 -2 0 -6 7 -10 15 -3 8 -1 15 4 15 6 0 10 -7 10 -15z m2900
-5 c0 -5 -5 -10 -11 -10 -5 0 -7 5 -4 10 3 6 8 10 11 10 2 0 4 -4 4 -10z m47
-32 c-3 -8 -6 -5 -6 6 -1 11 2 17 5 13 3 -3 4 -12 1 -19z m-83 -4 c9 -3 16
-14 15 -23 0 -10 -2 -11 -6 -3 -2 6 -11 12 -19 12 -8 0 -14 5 -14 10 0 12 3
12 24 4z m-2741 -104 c-2 -2 -27 20 -56 50 l-52 54 55 -49 c31 -28 54 -52 53
-55z m2871 70 c9 -9 -3 -15 -26 -11 -4 0 -5 -6 -1 -15 4 -11 8 -12 13 -4 5 9
9 9 14 1 4 -6 3 -11 -1 -11 -5 0 -9 -10 -10 -21 -1 -12 -7 -27 -14 -33 -9 -8
-10 -3 -6 21 7 35 -1 45 -48 61 l-30 10 25 10 c28 12 68 8 84 -8z m-204 -30
c0 -5 -7 -10 -15 -10 -8 0 -15 5 -15 10 0 6 7 10 15 10 8 0 15 -4 15 -10z
m-67 -21 c-6 -6 -9 -19 -6 -28 4 -12 3 -13 -6 -5 -13 12 -5 44 12 44 8 0 8 -3
0 -11z m60 -16 c-7 -2 -19 -2 -25 0 -7 3 -2 5 12 5 14 0 19 -2 13 -5z m-2588
-64 c16 -19 13 -18 -17 5 -21 16 -38 30 -38 33 0 8 36 -16 55 -38z m2510 -42
c-8 -4 -15 -14 -15 -22 0 -8 -5 -17 -11 -21 -8 -4 -9 1 -4 17 4 13 12 26 16
27 5 2 9 11 9 20 0 15 2 15 10 2 6 -10 5 -17 -5 -23z m-2383 -51 c21 -16 36
-31 34 -33 -4 -4 -107 75 -131 100 -14 14 52 -30 97 -67z m2353 -26 c3 -5 2
-10 -4 -10 -5 0 -13 5 -16 10 -3 6 -2 10 4 10 5 0 13 -4 16 -10z m-3949 -427
c-10 -10 -19 5 -10 18 6 11 8 11 12 0 2 -7 1 -15 -2 -18z m-63 -123 c17 0 23
-11 11 -23 -3 -3 -15 3 -27 13 -15 15 -25 17 -41 9 -19 -9 -19 -9 -4 3 15 13
15 16 -2 38 -15 20 -21 23 -31 13 -11 -11 -10 -13 0 -13 11 0 11 -3 0 -17 -10
-11 -10 -14 -1 -9 6 4 12 2 12 -3 0 -15 -45 -14 -58 2 -11 13 4 34 23 33 6 -1
14 9 19 20 9 21 12 20 45 -22 20 -24 44 -44 54 -44z m5747 0 c0 -5 -4 -10 -10
-10 -5 0 -10 5 -10 10 0 6 5 10 10 10 6 0 10 -4 10 -10z m-5877 -207 c3 -5 1
-17 -4 -28 -6 -17 -8 -17 -8 -2 -1 9 -6 17 -12 17 -6 0 -9 -6 -6 -14 7 -18
-56 -42 -75 -29 -7 4 -33 9 -58 10 -90 6 -136 15 -115 23 11 4 35 3 54 -1 47
-11 131 -3 172 15 41 17 47 18 52 9z m1027 -437 c0 -3 -4 -8 -10 -11 -5 -3
-10 -1 -10 4 0 6 5 11 10 11 6 0 10 -2 10 -4z m17 -28 c-3 -8 -6 -5 -6 6 -1
11 2 17 5 13 3 -3 4 -12 1 -19z m3663 -53 c-7 -8 -17 -12 -22 -9 -6 4 -5 10 3
15 22 14 33 10 19 -6z m183 -92 c-7 -2 -21 -2 -30 0 -10 3 -4 5 12 5 17 0 24
-2 18 -5z m37 -18 c0 -2 -10 -10 -22 -16 -21 -11 -22 -11 -9 4 13 16 31 23 31
12z m-1628 -127 c-7 -7 -12 -8 -12 -2 0 14 12 26 19 19 2 -3 -1 -11 -7 -17z
m1348 -18 c0 -5 -12 -10 -27 -9 l-28 1 25 8 c14 4 26 8 28 9 1 1 2 -3 2 -9z
m-1433 -16 c-3 -3 -12 -4 -19 -1 -8 3 -5 6 6 6 11 1 17 -2 13 -5z m-2687 -224
c0 -5 -5 -10 -11 -10 -5 0 -7 5 -4 10 3 6 8 10 11 10 2 0 4 -4 4 -10z m-766
-75 c-4 -8 -8 -15 -10 -15 -2 0 -4 7 -4 15 0 8 4 15 10 15 5 0 7 -7 4 -15z
m211 5 c3 -5 1 -10 -4 -10 -6 0 -11 5 -11 10 0 6 2 10 4 10 3 0 8 -4 11 -10z
m-465 -40 c0 -5 -5 -10 -11 -10 -5 0 -7 5 -4 10 3 6 8 10 11 10 2 0 4 -4 4
-10z m280 0 c0 -5 -2 -10 -4 -10 -3 0 -8 5 -11 10 -3 6 -1 10 4 10 6 0 11 -4
11 -10z m610 0 c0 -5 -4 -10 -10 -10 -5 0 -10 5 -10 10 0 6 5 10 10 10 6 0 10
-4 10 -10z m-1035 -10 c3 -5 1 -10 -4 -10 -6 0 -11 5 -11 10 0 6 2 10 4 10 3
0 8 -4 11 -10z m60 -10 c3 -5 -1 -10 -10 -10 -9 0 -13 5 -10 10 3 6 8 10 10
10 2 0 7 -4 10 -10z m1617 -8 c10 -10 3 -12 -34 -11 -32 2 -45 6 -41 14 5 16
58 14 75 -3z m-1373 4 c-2 -2 -17 -6 -34 -10 -22 -5 -26 -4 -15 4 14 9 59 15
49 6z m-409 -16 c0 -5 -4 -10 -10 -10 -5 0 -10 5 -10 10 0 6 5 10 10 10 6 0
10 -4 10 -10z m113 3 c-7 -2 -19 -2 -25 0 -7 3 -2 5 12 5 14 0 19 -2 13 -5z
m110 0 c-7 -2 -19 -2 -25 0 -7 3 -2 5 12 5 14 0 19 -2 13 -5z m1147 -23 c0 -5
-4 -10 -10 -10 -5 0 -10 5 -10 10 0 6 5 10 10 10 6 0 10 -4 10 -10z m-1130
-17 c-47 -8 -57 -15 -30 -23 l25 -8 -27 -1 c-18 -1 -31 6 -38 19 -10 19 -8 20
42 19 29 -1 42 -4 28 -6z m917 -15 c-3 -8 -6 -5 -6 6 -1 11 2 17 5 13 3 -3 4
-12 1 -19z m33 -3 c0 -8 -2 -15 -4 -15 -2 0 -6 7 -10 15 -3 8 -1 15 4 15 6 0
10 -7 10 -15z m283 -56 c21 0 21 -1 2 -9 -32 -14 -35 -12 -34 23 1 23 3 26 6
10 3 -15 12 -23 26 -24z"/>
<path d="M2806 7118 c10 -14 21 -24 23 -22 3 3 -6 15 -18 27 l-24 22 19 -27z"/>
<path d="M3609 6811 c7 -5 11 -14 7 -19 -4 -6 7 -37 23 -69 32 -62 41 -65 16
-7 -8 20 -12 40 -9 46 8 12 -23 58 -39 58 -8 0 -8 -3 2 -9z m31 -42 c0 -6 -4
-7 -10 -4 -5 3 -10 11 -10 16 0 6 5 7 10 4 6 -3 10 -11 10 -16z"/>
<path d="M3522 6705 c0 -16 2 -22 5 -12 2 9 2 23 0 30 -3 6 -5 -1 -5 -18z"/>
<path d="M7435 6389 c-4 -6 -5 -12 -2 -15 2 -3 7 2 10 11 7 17 1 20 -8 4z"/>
<path d="M5991 5847 c-8 -10 -7 -14 2 -14 8 0 14 6 14 14 0 7 -1 13 -2 13 -2
0 -8 -6 -14 -13z"/>
<path d="M1180 5790 c-6 -11 -8 -20 -6 -20 3 0 10 9 16 20 6 11 8 20 6 20 -3
0 -10 -9 -16 -20z"/>
<path d="M7530 5631 c0 -5 5 -13 10 -16 6 -3 10 -2 10 4 0 5 -4 13 -10 16 -5
3 -10 2 -10 -4z"/>
<path d="M3661 5223 c0 -13 -5 -23 -11 -23 -5 0 -10 -5 -10 -12 0 -8 6 -7 16
4 9 8 14 24 11 34 -4 16 -5 15 -6 -3z"/>
<path d="M6310 5405 c-11 -13 -10 -14 4 -9 9 3 16 10 16 15 0 13 -6 11 -20 -6z"/>
<path d="M6255 5375 c-16 -7 -23 -14 -14 -14 8 -1 24 6 35 14 24 18 18 18 -21
0z"/>
<path d="M6162 5358 c-8 -10 -4 -13 14 -14 15 -1 24 4 24 12 0 17 -24 18 -38
2z"/>
<path d="M1556 5352 c-3 -5 1 -9 9 -9 8 0 12 4 9 9 -3 4 -7 8 -9 8 -2 0 -6 -4
-9 -8z"/>
<path d="M6010 5161 c0 -6 4 -13 10 -16 6 -3 7 1 4 9 -7 18 -14 21 -14 7z"/>
<path d="M3340 4420 c0 -5 5 -10 10 -10 6 0 10 5 10 10 0 6 -4 10 -10 10 -5 0
-10 -4 -10 -10z"/>
<path d="M3362 4340 c0 -19 2 -27 5 -17 2 9 2 25 0 35 -3 9 -5 1 -5 -18z"/>
<path d="M3296 4113 c-6 -14 -5 -15 5 -6 7 7 10 15 7 18 -3 3 -9 -2 -12 -12z"/>
<path d="M2968 3781 c12 -7 62 -4 62 5 0 2 -17 4 -37 4 -24 0 -33 -3 -25 -9z"/>
<path d="M3070 3780 c0 -5 5 -10 10 -10 6 0 10 5 10 10 0 6 -4 10 -10 10 -5 0
-10 -4 -10 -10z"/>
<path d="M3011 3761 c-9 -6 -10 -11 -2 -15 6 -4 11 -2 11 4 0 6 5 8 10 5 6 -3
10 -1 10 4 0 13 -10 14 -29 2z"/>
<path d="M6040 4380 c0 -5 5 -10 11 -10 5 0 7 5 4 10 -3 6 -8 10 -11 10 -2 0
-4 -4 -4 -10z"/>
<path d="M6280 3790 c0 -5 5 -10 11 -10 5 0 7 5 4 10 -3 6 -8 10 -11 10 -2 0
-4 -4 -4 -10z"/>
<path d="M4378 3063 c7 -3 16 -2 19 1 4 3 -2 6 -13 5 -11 0 -14 -3 -6 -6z"/>
<path d="M5108 2883 c6 -2 18 -2 25 0 6 3 1 5 -13 5 -14 0 -19 -2 -12 -5z"/>
<path d="M4445 2790 c-4 -6 -3 -16 3 -22 13 -13 23 4 13 21 -7 10 -10 10 -16
1z"/>
<path d="M4505 2690 c-3 -5 -1 -10 4 -10 6 0 11 5 11 10 0 6 -2 10 -4 10 -3 0
-8 -4 -11 -10z"/>
<path d="M4350 2670 c0 -5 5 -10 10 -10 6 0 10 5 10 10 0 6 -4 10 -10 10 -5 0
-10 -4 -10 -10z"/>
<path d="M4600 2545 c0 -8 4 -15 10 -15 5 0 7 7 4 15 -4 8 -8 15 -10 15 -2 0
-4 -7 -4 -15z"/>
<path d="M4520 2510 c19 -13 30 -13 30 0 0 6 -10 10 -22 10 -19 0 -20 -2 -8
-10z"/>
<path d="M4719 2493 c-13 -16 -12 -17 4 -4 16 13 21 21 13 21 -2 0 -10 -8 -17
-17z"/>
<path d="M4145 2469 c-10 -15 1 -23 20 -15 9 3 13 10 10 16 -8 13 -22 13 -30
-1z"/>
<path d="M4530 2460 c0 -5 5 -10 10 -10 6 0 10 5 10 10 0 6 -4 10 -10 10 -5 0
-10 -4 -10 -10z"/>
<path d="M5210 2390 c0 -5 5 -10 11 -10 5 0 7 5 4 10 -3 6 -8 10 -11 10 -2 0
-4 -4 -4 -10z"/>
<path d="M5240 2350 c0 -5 5 -10 10 -10 6 0 10 5 10 10 0 6 -4 10 -10 10 -5 0
-10 -4 -10 -10z"/>
<path d="M5220 2315 c-7 -9 -11 -17 -9 -20 3 -2 10 5 17 15 14 24 10 26 -8 5z"/>
<path d="M4250 2290 c0 -5 5 -10 10 -10 6 0 10 5 10 10 0 6 -4 10 -10 10 -5 0
-10 -4 -10 -10z"/>
<path d="M4360 2200 c0 -5 5 -10 10 -10 6 0 10 5 10 10 0 6 -4 10 -10 10 -5 0
-10 -4 -10 -10z"/>
<path d="M5070 2199 c0 -5 5 -7 10 -4 6 3 10 8 10 11 0 2 -4 4 -10 4 -5 0 -10
-5 -10 -11z"/>
<path d="M4701 2177 c-16 -16 -13 -35 7 -45 19 -10 42 -5 42 9 0 5 -9 18 -19
28 -14 14 -22 16 -30 8z"/>
<path d="M4951 2145 c-2 -38 -4 -45 -11 -30 -5 11 -9 15 -9 8 -1 -6 -4 -20 -7
-30 -5 -15 -4 -15 5 -3 9 13 11 13 11 0 1 -8 7 -3 16 13 8 15 23 27 34 27 11
0 20 6 20 14 0 9 -8 12 -24 9 -19 -4 -25 0 -29 18 -2 13 -5 2 -6 -26z"/>
<path d="M4270 2143 c1 -19 16 -31 29 -24 7 5 10 14 7 20 -8 12 -36 15 -36 4z"/>
<path d="M5061 2124 c0 -11 3 -14 6 -6 3 7 2 16 -1 19 -3 4 -6 -2 -5 -13z"/>
<path d="M5081 2124 c0 -11 3 -14 6 -6 3 7 2 16 -1 19 -3 4 -6 -2 -5 -13z"/>
<path d="M5100 2125 c0 -8 5 -15 10 -15 6 0 10 7 10 15 0 8 -4 15 -10 15 -5 0
-10 -7 -10 -15z"/>
<path d="M5070 2086 c0 -2 8 -10 18 -17 15 -13 16 -12 3 4 -13 16 -21 21 -21
13z"/>
<path d="M4982 2050 c0 -19 2 -27 5 -17 2 9 2 25 0 35 -3 9 -5 1 -5 -18z"/>
<path d="M4210 2030 c0 -5 5 -10 10 -10 6 0 10 5 10 10 0 6 -4 10 -10 10 -5 0
-10 -4 -10 -10z"/>
<path d="M4867 1993 c-16 -25 -26 -47 -23 -50 2 -2 14 14 27 36 16 29 25 37
31 29 4 -7 8 -8 8 -3 0 6 -4 15 -8 22 -5 8 -17 -3 -35 -34z"/>
<path d="M4980 1967 c0 -22 31 -19 37 3 4 13 3 13 -6 0 -10 -13 -12 -13 -21 0
-8 13 -10 12 -10 -3z"/>
<path d="M4765 1840 c-16 -17 -16 -20 -3 -15 9 4 19 13 22 21 7 19 2 18 -19
-6z"/>
<path d="M4588 1833 c7 -3 16 -2 19 1 4 3 -2 6 -13 5 -11 0 -14 -3 -6 -6z"/>
<path d="M4697 1760 c-9 -11 -13 -20 -7 -20 5 0 14 9 20 20 6 11 9 20 8 20 -2
0 -11 -9 -21 -20z"/>
<path d="M4510 1720 c0 -5 5 -10 10 -10 6 0 10 5 10 10 0 6 -4 10 -10 10 -5 0
-10 -4 -10 -10z"/>
<path d="M2880 1640 c0 -5 5 -10 10 -10 6 0 10 5 10 10 0 6 -4 10 -10 10 -5 0
-10 -4 -10 -10z"/>
<path d="M4520 1610 c-6 -11 -8 -20 -6 -20 3 0 10 9 16 20 6 11 8 20 6 20 -3
0 -10 -9 -16 -20z"/>
<path d="M3390 1570 c0 -5 5 -10 10 -10 6 0 10 5 10 10 0 6 -4 10 -10 10 -5 0
-10 -4 -10 -10z"/>
<path d="M4487 1553 c-4 -3 -7 -11 -7 -17 0 -6 5 -5 12 2 6 6 9 14 7 17 -3 3
-9 2 -12 -2z"/>
<path d="M4467 1429 c7 -7 15 -10 18 -7 3 3 -2 9 -12 12 -14 6 -15 5 -6 -5z"/>
<path d="M4210 1400 c0 -5 5 -10 10 -10 6 0 10 5 10 10 0 6 -4 10 -10 10 -5 0
-10 -4 -10 -10z"/>
<path d="M3560 1385 c-10 -12 -10 -19 -2 -27 14 -14 17 -11 26 20 8 25 -5 29
-24 7z"/>
<path d="M3713 693 c9 -2 25 -2 35 0 9 3 1 5 -18 5 -19 0 -27 -2 -17 -5z"/>
<path d="M3951 534 c0 -11 3 -14 6 -6 3 7 2 16 -1 19 -3 4 -6 -2 -5 -13z"/>
<path d="M4020 520 c0 -11 6 -20 13 -21 6 0 24 -2 40 -3 15 -1 27 3 27 10 0 7
-10 9 -25 6 -17 -3 -27 1 -31 12 -9 22 -24 20 -24 -4z"/>
<path d="M3955 504 l-30 -14 28 5 c20 4 27 1 27 -10 0 -25 15 -17 16 10 2 29
0 29 -41 9z"/>
<path d="M4110 500 c0 -5 5 -10 10 -10 6 0 10 5 10 10 0 6 -4 10 -10 10 -5 0
-10 -4 -10 -10z"/>
<path d="M3870 486 c0 -8 5 -18 10 -21 6 -3 10 3 10 14 0 12 -4 21 -10 21 -5
0 -10 -6 -10 -14z"/>
<path d="M3760 480 c-22 -7 -23 -8 -4 -9 16 -1 21 -7 20 -23 -1 -13 4 -29 11
-36 7 -8 11 -18 8 -23 -4 -5 2 -9 12 -9 10 0 36 -3 58 -6 30 -4 36 -3 25 5 -8
6 -30 11 -47 11 -18 0 -33 3 -34 8 -1 14 -7 37 -14 53 -9 23 10 33 28 15 11
-11 17 -12 26 -3 6 6 11 15 11 19 0 10 -67 9 -100 -2z"/>
<path d="M3490 470 c0 -5 5 -10 10 -10 6 0 10 5 10 10 0 6 -4 10 -10 10 -5 0
-10 -4 -10 -10z"/>
<path d="M3540 468 c0 -5 14 -8 30 -8 17 0 30 -4 30 -9 0 -5 -11 -8 -25 -6
-16 1 -25 -3 -25 -11 0 -8 -4 -14 -10 -14 -5 0 -10 4 -10 10 0 5 -6 7 -13 4
-8 -3 -25 -1 -39 5 -14 5 -31 6 -39 1 -28 -18 8 -30 99 -32 92 -3 92 -3 93 22
1 20 3 18 9 -10 6 -29 8 -31 9 -9 1 22 5 25 30 21 26 -4 30 -9 34 -41 l4 -36
1 37 c2 32 5 36 25 31 19 -4 20 -3 5 7 -10 6 -18 19 -18 28 0 15 -12 17 -95
17 -52 0 -95 -3 -95 -7z m160 -18 c0 -5 -4 -10 -10 -10 -5 0 -10 5 -10 10 0 6
5 10 10 10 6 0 10 -4 10 -10z"/>
<path d="M3908 473 c7 -3 16 -2 19 1 4 3 -2 6 -13 5 -11 0 -14 -3 -6 -6z"/>
<path d="M3368 463 c7 -3 16 -2 19 1 4 3 -2 6 -13 5 -11 0 -14 -3 -6 -6z"/>
<path d="M3411 458 c-1 -10 -5 -18 -11 -18 -5 0 -10 -5 -10 -12 0 -8 6 -7 16
4 9 9 14 22 11 30 -4 9 -6 7 -6 -4z"/>
<path d="M3863 443 c-7 -2 -13 -11 -13 -18 0 -19 34 -11 38 8 4 17 -3 20 -25
10z"/>
<path d="M3900 434 c0 -8 5 -12 10 -9 6 3 10 10 10 16 0 5 -4 9 -10 9 -5 0
-10 -7 -10 -16z"/>
<path d="M3660 410 c0 -5 5 -10 10 -10 6 0 10 5 10 10 0 6 -4 10 -10 10 -5 0
-10 -4 -10 -10z"/>
<path d="M3923 400 c-2 -17 4 -20 40 -18 l42 1 -37 4 c-27 3 -35 8 -31 19 3 8
1 14 -4 14 -5 0 -9 -9 -10 -20z"/>
<path d="M3750 391 c0 -25 6 -27 13 -6 4 8 2 17 -3 20 -6 4 -10 -3 -10 -14z"/>
<path d="M2100 383 c8 -3 21 -12 28 -21 10 -14 12 -13 12 6 0 18 -6 22 -27 21
-16 0 -21 -3 -13 -6z"/>
<path d="M2175 380 c-3 -5 -2 -10 4 -10 5 0 13 5 16 10 3 6 2 10 -4 10 -5 0
-13 -4 -16 -10z"/>
<path d="M3612 381 c-10 -6 -5 -11 19 -20 32 -11 32 -11 14 9 -10 11 -19 20
-19 20 -1 0 -7 -4 -14 -9z"/>
<path d="M3230 360 c0 -5 5 -10 11 -10 5 0 7 5 4 10 -3 6 -8 10 -11 10 -2 0
-4 -4 -4 -10z"/>
<path d="M3330 360 c0 -5 5 -10 10 -10 6 0 10 5 10 10 0 6 -4 10 -10 10 -5 0
-10 -4 -10 -10z"/>
<path d="M3360 360 c0 -5 5 -10 10 -10 6 0 10 5 10 10 0 6 -4 10 -10 10 -5 0
-10 -4 -10 -10z"/>
<path d="M3391 354 c0 -11 3 -14 6 -6 3 7 2 16 -1 19 -3 4 -6 -2 -5 -13z"/>
<path d="M3410 360 c0 -5 18 -10 39 -10 22 0 43 5 46 10 4 6 -12 10 -39 10
-25 0 -46 -4 -46 -10z"/>
<path d="M2230 350 c-24 -8 -23 -8 8 -9 20 -1 31 3 27 9 -3 6 -7 10 -8 9 -1
-1 -13 -5 -27 -9z"/>
<path d="M2280 350 c0 -5 5 -10 11 -10 5 0 7 5 4 10 -3 6 -8 10 -11 10 -2 0
-4 -4 -4 -10z"/>
<path d="M3016 351 c-15 -6 -16 -10 -7 -16 7 -4 16 -3 20 2 3 6 13 13 21 16
13 5 13 5 0 6 -8 0 -24 -4 -34 -8z"/>
<path d="M2333 335 c0 -8 4 -12 9 -9 5 3 6 10 3 15 -9 13 -12 11 -12 -6z"/>
<path d="M2670 335 c0 -8 2 -15 4 -15 2 0 6 7 10 15 3 8 1 15 -4 15 -6 0 -10
-7 -10 -15z"/>
<path d="M2790 340 c0 -5 5 -10 11 -10 5 0 7 5 4 10 -3 6 -8 10 -11 10 -2 0
-4 -4 -4 -10z"/>
<path d="M2956 333 c-6 -14 -5 -15 5 -6 7 7 10 15 7 18 -3 3 -9 -2 -12 -12z"/>
<path d="M3150 340 c0 -5 4 -10 9 -10 6 0 13 5 16 10 3 6 -1 10 -9 10 -9 0
-16 -4 -16 -10z"/>
<path d="M2237 313 c-13 -12 -7 -23 11 -22 10 0 12 3 4 6 -6 2 -10 9 -6 14 6
10 0 12 -9 2z"/>
<path d="M7891 3014 c0 -11 3 -14 6 -6 3 7 2 16 -1 19 -3 4 -6 -2 -5 -13z"/>
<path d="M7912 2814 c-7 -8 -8 -14 -3 -14 10 0 25 19 20 25 -2 1 -10 -3 -17
-11z"/>
<path d="M7905 2780 c-3 -5 -2 -10 4 -10 5 0 13 5 16 10 3 6 2 10 -4 10 -5 0
-13 -4 -16 -10z"/>
<path d="M7874 2942 c-1 -9 -4 -26 -8 -37 -4 -11 0 -7 9 9 10 16 13 32 8 37
-5 5 -9 1 -9 -9z"/>
<path d="M5150 2615 c-7 -9 -10 -18 -7 -21 3 -3 10 4 17 15 13 25 8 27 -10 6z"/>
<path d="M5155 2581 c-6 -11 13 -26 22 -17 4 3 1 6 -6 6 -7 0 -9 5 -6 10 3 6
4 10 1 10 -3 0 -7 -4 -11 -9z"/>
<path d="M3297 7701 c20 -20 79 -39 68 -21 -3 5 -12 10 -19 10 -8 0 -19 7 -26
15 -7 8 -19 15 -27 15 -10 0 -10 -4 4 -19z"/>
<path d="M5241 7286 c2 -2 29 -7 59 -10 37 -4 48 -3 35 3 -19 9 -102 15 -94 7z"/>
<path d="M7563 6703 c9 -2 25 -2 35 0 9 3 1 5 -18 5 -19 0 -27 -2 -17 -5z"/>
<path d="M7667 6654 c18 -22 35 -52 38 -67 9 -32 50 -68 71 -60 8 3 14 9 14
13 0 13 -26 30 -35 22 -5 -4 -5 -1 -1 6 4 7 1 12 -9 12 -10 0 -14 -5 -10 -12
4 -7 -1 -4 -9 6 -20 25 -20 36 -1 36 8 0 15 -4 15 -10 0 -5 5 -10 11 -10 7 0
17 -7 24 -16 10 -14 12 -12 12 15 0 29 -4 32 -51 46 -27 8 -61 25 -75 38 -20
18 -19 15 6 -19z"/>
<path d="M7707 6397 c-3 -8 6 -18 24 -24 28 -11 28 -11 12 13 -17 27 -28 30
-36 11z"/>
<path d="M1606 6294 c-6 -16 7 -40 29 -56 12 -9 27 1 20 13 -4 5 -1 9 5 9 6 0
8 5 5 11 -4 6 -13 8 -21 5 -8 -3 -14 1 -14 9 0 21 -17 27 -24 9z"/>
<path d="M1740 6275 c0 -8 5 -15 10 -15 6 0 10 7 10 15 0 8 -4 15 -10 15 -5 0
-10 -7 -10 -15z"/>
<path d="M7680 6250 c0 -5 7 -10 15 -10 8 0 15 5 15 10 0 6 -7 10 -15 10 -8 0
-15 -4 -15 -10z"/>
<path d="M6990 6216 c0 -2 13 -6 29 -8 17 -2 28 -1 25 4 -5 8 -54 12 -54 4z"/>
<path d="M6848 6193 c7 -3 16 -2 19 1 4 3 -2 6 -13 5 -11 0 -14 -3 -6 -6z"/>
<path d="M6790 6181 c-22 -7 -18 -9 32 -24 34 -10 63 -26 73 -39 8 -13 15 -17
15 -11 0 6 -15 23 -32 37 -18 15 -38 31 -45 36 -7 6 -13 10 -15 9 -2 -1 -14
-4 -28 -8z"/>
<path d="M2299 6053 c-13 -16 -12 -17 4 -4 9 7 17 15 17 17 0 8 -8 3 -21 -13z"/>
<path d="M6768 5983 c6 -2 18 -2 25 0 6 3 1 5 -13 5 -14 0 -19 -2 -12 -5z"/>
<path d="M2578 5593 c-22 -2 -38 -10 -38 -17 0 -16 65 -8 81 10 6 8 8 13 3 12
-5 -1 -26 -3 -46 -5z"/>
<path d="M8046 4913 c-6 -14 -5 -15 5 -6 7 7 10 15 7 18 -3 3 -9 -2 -12 -12z"/>
<path d="M8487 4899 c7 -7 15 -10 18 -7 3 3 -2 9 -12 12 -14 6 -15 5 -6 -5z"/>
<path d="M1815 3330 c-3 -5 -1 -10 4 -10 6 0 11 5 11 10 0 6 -2 10 -4 10 -3 0
-8 -4 -11 -10z"/>
<path d="M280 3170 c-12 -7 -12 -12 -3 -21 15 -15 26 -7 21 15 -2 11 -7 13
-18 6z"/>
<path d="M1525 2959 c-10 -31 15 -54 39 -36 15 11 17 17 7 35 -15 28 -38 28
-46 1z"/>
<path d="M1697 2863 c-11 -10 -8 -41 4 -49 6 -3 18 1 27 9 13 13 13 19 2 31
-14 17 -23 20 -33 9z"/>
<path d="M1940 2575 c-10 -12 -10 -15 4 -15 9 0 16 7 16 15 0 8 -2 15 -4 15
-2 0 -9 -7 -16 -15z"/>
<path d="M1650 2456 c0 -9 5 -16 10 -16 6 0 10 4 10 9 0 6 -4 13 -10 16 -5 3
-10 -1 -10 -9z"/>
<path d="M2004 2275 c-3 -8 -3 -19 1 -25 10 -16 45 7 39 25 -8 19 -33 19 -40
0z"/>
<path d="M1608 2273 c7 -3 16 -2 19 1 4 3 -2 6 -13 5 -11 0 -14 -3 -6 -6z"/>
<path d="M1955 2160 c3 -5 8 -10 11 -10 2 0 4 5 4 10 0 6 -5 10 -11 10 -5 0
-7 -4 -4 -10z"/>
<path d="M1805 2140 c-3 -5 -1 -10 4 -10 6 0 11 5 11 10 0 6 -2 10 -4 10 -3 0
-8 -4 -11 -10z"/>
<path d="M1476 2019 c-14 -11 -26 -29 -26 -38 0 -31 39 -71 69 -71 38 0 81 35
81 66 0 15 6 24 15 24 8 0 15 5 15 10 0 13 -17 13 -25 0 -3 -5 -19 -1 -38 10
-41 25 -58 25 -91 -1z"/>
<path d="M694 1755 c-18 -13 -18 -14 4 -8 12 3 25 9 28 14 8 14 -10 11 -32 -6z"/>
<path d="M1500 1750 c-12 -7 -12 -12 -2 -22 10 -10 15 -10 22 2 19 29 9 39
-20 20z"/>
<path d="M1630 1750 c0 -5 7 -10 15 -10 8 0 15 5 15 10 0 6 -7 10 -15 10 -8 0
-15 -4 -15 -10z"/>
<path d="M1780 1736 c0 -9 5 -16 10 -16 6 0 10 4 10 9 0 6 -4 13 -10 16 -5 3
-10 -1 -10 -9z"/>
<path d="M1091 1694 c0 -11 3 -14 6 -6 3 7 2 16 -1 19 -3 4 -6 -2 -5 -13z"/>
<path d="M1740 1670 c0 -5 5 -10 10 -10 6 0 10 5 10 10 0 6 -4 10 -10 10 -5 0
-10 -4 -10 -10z"/>
<path d="M1101 1634 c0 -11 3 -14 6 -6 3 7 2 16 -1 19 -3 4 -6 -2 -5 -13z"/>
<path d="M1390 1630 c0 -5 5 -10 11 -10 5 0 7 5 4 10 -3 6 -8 10 -11 10 -2 0
-4 -4 -4 -10z"/>
<path d="M1255 1600 c3 -5 8 -10 11 -10 2 0 4 5 4 10 0 6 -5 10 -11 10 -5 0
-7 -4 -4 -10z"/>
<path d="M1720 1570 c0 -5 7 -10 15 -10 8 0 15 5 15 10 0 6 -7 10 -15 10 -8 0
-15 -4 -15 -10z"/>
<path d="M7597 1536 c-7 -16 1 -26 20 -26 7 0 13 9 13 20 0 23 -25 27 -33 6z"/>
<path d="M1380 1503 c0 -7 7 -13 15 -13 8 0 15 6 15 13 0 8 -7 14 -15 14 -8 0
-15 -6 -15 -14z"/>
<path d="M7540 1510 c0 -5 5 -10 10 -10 6 0 10 5 10 10 0 6 -4 10 -10 10 -5 0
-10 -4 -10 -10z"/>
<path d="M5950 1451 c0 -12 6 -21 16 -21 9 0 14 7 12 17 -5 25 -28 28 -28 4z"/>
<path d="M6080 1450 c0 -5 5 -10 10 -10 6 0 10 5 10 10 0 6 -4 10 -10 10 -5 0
-10 -4 -10 -10z"/>
<path d="M1476 1431 c-3 -5 1 -11 9 -15 15 -6 29 7 18 18 -9 9 -21 8 -27 -3z"/>
<path d="M270 1410 c-13 -8 -12 -10 3 -10 9 0 17 5 17 10 0 12 -1 12 -20 0z"/>
<path d="M88 1403 c6 -2 18 -2 25 0 6 3 1 5 -13 5 -14 0 -19 -2 -12 -5z"/>
<path d="M1400 1380 c-13 -8 -12 -10 3 -10 9 0 17 5 17 10 0 12 -1 12 -20 0z"/>
<path d="M1800 1370 c0 -5 5 -10 10 -10 6 0 10 5 10 10 0 6 -4 10 -10 10 -5 0
-10 -4 -10 -10z"/>
<path d="M1320 1336 c0 -2 7 -7 16 -10 8 -3 12 -2 9 4 -6 10 -25 14 -25 6z"/>
<path d="M1455 1320 c3 -5 10 -10 16 -10 5 0 9 5 9 10 0 6 -7 10 -16 10 -8 0
-12 -4 -9 -10z"/>
<path d="M6720 1326 c0 -9 37 -12 55 -5 15 6 11 8 -17 8 -21 1 -38 -1 -38 -3z"/>
<path d="M7767 1323 c-13 -12 -7 -23 13 -23 11 0 20 7 20 15 0 15 -21 21 -33
8z"/>
<path d="M1 1280 l-1 -35 54 3 c45 3 54 7 49 20 -5 12 -8 13 -11 3 -4 -11 -6
-11 -13 0 -7 12 -9 12 -9 0 0 -11 -3 -11 -16 0 -13 10 -17 10 -24 0 -5 -10
-11 -5 -18 15 l-10 29 -1 -35z"/>
<path d="M60 1300 c0 -5 5 -10 10 -10 6 0 10 5 10 10 0 6 -4 10 -10 10 -5 0
-10 -4 -10 -10z"/>
<path d="M1075 1290 c-3 -5 -2 -10 4 -10 5 0 13 5 16 10 3 6 2 10 -4 10 -5 0
-13 -4 -16 -10z"/>
<path d="M1682 1268 c-16 -16 -15 -28 2 -28 16 0 29 27 17 34 -4 3 -13 0 -19
-6z"/>
<path d="M1273 1155 c1 -25 5 -45 10 -45 4 0 7 7 7 15 0 8 6 15 13 15 19 0 50
37 42 49 -3 6 -21 11 -40 11 -34 0 -34 0 -32 -45z"/>
<path d="M6090 1185 c0 -8 5 -15 10 -15 6 0 10 7 10 15 0 8 -4 15 -10 15 -5 0
-10 -7 -10 -15z"/>
<path d="M1560 1154 c0 -8 5 -12 10 -9 6 3 10 10 10 16 0 5 -4 9 -10 9 -5 0
-10 -7 -10 -16z"/>
<path d="M1018 1153 c7 -3 16 -2 19 1 4 3 -2 6 -13 5 -11 0 -14 -3 -6 -6z"/>
<path d="M1656 1135 c4 -8 8 -15 10 -15 2 0 4 7 4 15 0 8 -4 15 -10 15 -5 0
-7 -7 -4 -15z"/>
<path d="M5745 1130 c3 -5 10 -10 16 -10 5 0 9 5 9 10 0 6 -7 10 -16 10 -8 0
-12 -4 -9 -10z"/>
<path d="M1230 1120 c0 -5 5 -10 11 -10 5 0 7 5 4 10 -3 6 -8 10 -11 10 -2 0
-4 -4 -4 -10z"/>
<path d="M1220 1079 c0 -5 5 -7 10 -4 6 3 10 8 10 11 0 2 -4 4 -10 4 -5 0 -10
-5 -10 -11z"/>
<path d="M5795 1070 c-7 -12 2 -30 16 -30 12 0 12 27 0 35 -5 3 -12 1 -16 -5z"/>
<path d="M1560 1050 c-15 -28 -9 -34 16 -16 14 11 16 17 7 26 -8 9 -14 7 -23
-10z"/>
<path d="M1246 1034 c-4 -9 -4 -19 -2 -22 10 -9 36 8 36 23 0 20 -26 19 -34
-1z"/>
<path d="M1395 1040 c-3 -5 -1 -10 4 -10 6 0 11 5 11 10 0 6 -2 10 -4 10 -3 0
-8 -4 -11 -10z"/>
<path d="M1331 1014 c0 -11 3 -14 6 -6 3 7 2 16 -1 19 -3 4 -6 -2 -5 -13z"/>
<path d="M1378 1013 c7 -3 16 -2 19 1 4 3 -2 6 -13 5 -11 0 -14 -3 -6 -6z"/>
<path d="M1230 959 c0 -5 5 -7 10 -4 6 3 10 8 10 11 0 2 -4 4 -10 4 -5 0 -10
-5 -10 -11z"/>
<path d="M1380 950 c0 -5 7 -7 15 -4 8 4 15 8 15 10 0 2 -7 4 -15 4 -8 0 -15
-4 -15 -10z"/>
<path d="M36 941 c-3 -5 1 -11 9 -15 8 -3 15 -1 15 4 0 13 -18 22 -24 11z"/>
<path d="M118 905 c-6 -49 -4 -64 8 -53 3 3 4 28 2 54 l-3 49 -7 -50z"/>
<path d="M1480 910 c-18 -16 -27 -30 -19 -29 8 0 24 13 37 30 30 37 24 37 -18
-1z"/>
<path d="M1250 900 c0 -5 5 -10 11 -10 5 0 7 5 4 10 -3 6 -8 10 -11 10 -2 0
-4 -4 -4 -10z"/>
<path d="M186 877 c3 -10 9 -15 12 -12 3 3 0 11 -7 18 -10 9 -11 8 -5 -6z"/>
<path d="M41 864 c0 -11 3 -14 6 -6 3 7 2 16 -1 19 -3 4 -6 -2 -5 -13z"/>
<path d="M61 864 c0 -11 3 -14 6 -6 3 7 2 16 -1 19 -3 4 -6 -2 -5 -13z"/>
<path d="M86 865 c-3 -8 -1 -15 4 -15 6 0 10 7 10 15 0 8 -2 15 -4 15 -2 0 -6
-7 -10 -15z"/>
<path d="M8 853 c7 -3 16 -2 19 1 4 3 -2 6 -13 5 -11 0 -14 -3 -6 -6z"/>
<path d="M284 853 c10 -11 36 -12 36 -2 0 5 -10 9 -22 9 -12 0 -18 -3 -14 -7z"/>
<path d="M8 823 c7 -3 16 -2 19 1 4 3 -2 6 -13 5 -11 0 -14 -3 -6 -6z"/>
<path d="M61 814 c0 -11 3 -14 6 -6 3 7 2 16 -1 19 -3 4 -6 -2 -5 -13z"/>
<path d="M130 800 c0 -5 5 -10 10 -10 6 0 10 5 10 10 0 6 -4 10 -10 10 -5 0
-10 -4 -10 -10z"/>
<path d="M301 794 c0 -11 3 -14 6 -6 3 7 2 16 -1 19 -3 4 -6 -2 -5 -13z"/>
<path d="M263 771 c-7 -10 -9 -22 -6 -25 13 -12 21 -5 21 19 0 30 0 30 -15 6z"/>
<path d="M20 775 c0 -3 9 -15 20 -27 23 -25 18 -38 -13 -38 -15 0 -23 -6 -24
-18 -1 -16 6 -19 43 -18 24 1 44 4 44 9 0 17 -3 22 -11 20 -5 -2 -9 2 -9 7 0
13 6 13 31 -1 16 -8 18 -13 8 -25 -8 -10 -8 -14 0 -14 10 0 15 13 12 33 0 4 5
7 11 7 9 0 8 4 -2 10 -13 9 -13 11 0 20 17 11 10 13 -36 10 -17 -1 -38 6 -47
14 -16 16 -27 20 -27 11z m90 -45 c0 -5 -4 -10 -10 -10 -5 0 -10 5 -10 10 0 6
5 10 10 10 6 0 10 -4 10 -10z"/>
<path d="M6830 769 c0 -5 5 -7 10 -4 6 3 10 8 10 11 0 2 -4 4 -10 4 -5 0 -10
-5 -10 -11z"/>
<path d="M220 760 c0 -5 5 -10 10 -10 6 0 10 5 10 10 0 6 -4 10 -10 10 -5 0
-10 -4 -10 -10z"/>
<path d="M0 746 c0 -9 5 -16 10 -16 6 0 10 4 10 9 0 6 -4 13 -10 16 -5 3 -10
-1 -10 -9z"/>
<path d="M153 748 c-4 -7 -8 -28 -9 -47 -1 -21 1 -29 6 -20 5 7 6 17 4 21 -3
4 0 8 5 8 6 0 10 11 9 25 -3 29 -4 30 -15 13z"/>
<path d="M7460 730 c0 -5 7 -10 15 -10 8 0 15 5 15 10 0 6 -7 10 -15 10 -8 0
-15 -4 -15 -10z"/>
<path d="M213 705 c0 -8 6 -15 13 -15 8 0 11 6 8 15 -4 8 -9 15 -13 15 -4 0
-8 -7 -8 -15z"/>
<path d="M660 716 c0 -2 7 -7 16 -10 8 -3 12 -2 9 4 -6 10 -25 14 -25 6z"/>
<path d="M8237 713 c-4 -3 -7 -15 -7 -25 0 -26 24 -17 28 10 3 21 -8 29 -21
15z"/>
<path d="M300 690 c0 -5 5 -10 10 -10 6 0 10 5 10 10 0 6 -4 10 -10 10 -5 0
-10 -4 -10 -10z"/>
<path d="M6990 670 c0 -5 5 -10 10 -10 6 0 10 5 10 10 0 6 -4 10 -10 10 -5 0
-10 -4 -10 -10z"/>
<path d="M1137 656 c-3 -8 -3 -17 0 -20 9 -9 34 15 27 25 -8 13 -21 11 -27 -5z"/>
<path d="M8260 640 c0 -5 5 -10 10 -10 6 0 10 5 10 10 0 6 -4 10 -10 10 -5 0
-10 -4 -10 -10z"/>
<path d="M8140 620 c0 -5 5 -10 10 -10 6 0 10 5 10 10 0 6 -4 10 -10 10 -5 0
-10 -4 -10 -10z"/>
<path d="M8005 600 c3 -5 8 -10 11 -10 2 0 4 5 4 10 0 6 -5 10 -11 10 -5 0 -7
-4 -4 -10z"/>
<path d="M8182 588 c6 -18 28 -21 28 -4 0 9 -7 16 -16 16 -9 0 -14 -5 -12 -12z"/>
<path d="M1335 571 c-3 -5 -1 -12 5 -16 5 -3 10 1 10 9 0 18 -6 21 -15 7z"/>
<path d="M6420 559 c0 -5 5 -7 10 -4 6 3 10 8 10 11 0 2 -4 4 -10 4 -5 0 -10
-5 -10 -11z"/>
<path d="M6760 550 c0 -5 5 -10 11 -10 5 0 7 5 4 10 -3 6 -8 10 -11 10 -2 0
-4 -4 -4 -10z"/>
<path d="M73 530 c2 -8 14 -16 28 -17 19 -1 20 -1 4 4 -11 3 -24 10 -28 17 -6
7 -7 6 -4 -4z"/>
<path d="M185 520 c3 -5 8 -10 11 -10 2 0 4 5 4 10 0 6 -5 10 -11 10 -5 0 -7
-4 -4 -10z"/>
<path d="M1037 493 c-4 -3 -7 -11 -7 -17 0 -6 5 -5 12 2 6 6 9 14 7 17 -3 3
-9 2 -12 -2z"/>
<path d="M893 476 c3 -8 1 -17 -6 -19 -7 -2 -9 -7 -6 -11 3 -3 14 -4 23 0 12
4 14 10 6 19 -5 6 -7 15 -3 18 3 4 1 7 -6 7 -7 0 -11 -6 -8 -14z"/>
<path d="M461 444 c0 -11 3 -14 6 -6 3 7 2 16 -1 19 -3 4 -6 -2 -5 -13z"/>
<path d="M6371 451 c-8 -5 -9 -11 -3 -15 5 -3 12 1 16 9 6 17 6 18 -13 6z"/>
<path d="M6775 450 c-3 -6 1 -7 9 -4 18 7 21 14 7 14 -6 0 -13 -4 -16 -10z"/>
<path d="M510 435 c0 -8 4 -15 10 -15 5 0 7 7 4 15 -4 8 -8 15 -10 15 -2 0 -4
-7 -4 -15z"/>
<path d="M1311 434 c0 -11 3 -14 6 -6 3 7 2 16 -1 19 -3 4 -6 -2 -5 -13z"/>
<path d="M6426 441 c-3 -5 5 -11 19 -13 20 -4 23 -3 14 8 -13 16 -25 18 -33 5z"/>
<path d="M6580 440 c0 -5 5 -10 10 -10 6 0 10 5 10 10 0 6 -4 10 -10 10 -5 0
-10 -4 -10 -10z"/>
<path d="M540 429 c0 -5 5 -7 10 -4 6 3 10 8 10 11 0 2 -4 4 -10 4 -5 0 -10
-5 -10 -11z"/>
<path d="M157 409 c7 -7 15 -10 18 -7 3 3 -2 9 -12 12 -14 6 -15 5 -6 -5z"/>
<path d="M6505 399 c-10 -15 3 -25 16 -12 7 7 7 13 1 17 -6 3 -14 1 -17 -5z"/>
<path d="M7170 400 c0 -5 5 -10 11 -10 5 0 7 5 4 10 -3 6 -8 10 -11 10 -2 0
-4 -4 -4 -10z"/>
<path d="M7270 399 c0 -5 5 -7 10 -4 6 3 10 8 10 11 0 2 -4 4 -10 4 -5 0 -10
-5 -10 -11z"/>
<path d="M93 375 c0 -8 9 -15 19 -15 17 0 18 2 4 15 -8 8 -16 15 -19 15 -2 0
-4 -7 -4 -15z"/>
<path d="M7246 382 c-3 -6 -1 -14 5 -17 15 -10 25 3 12 16 -7 7 -13 7 -17 1z"/>
<path d="M8 363 c7 -3 16 -2 19 1 4 3 -2 6 -13 5 -11 0 -14 -3 -6 -6z"/>
<path d="M7123 364 c-8 -4 -5 -12 8 -25 22 -22 39 -17 39 12 0 18 -19 24 -47
13z"/>
<path d="M6772 342 c-13 -10 -20 -21 -16 -25 11 -11 24 -8 24 4 0 7 8 18 18
25 9 7 13 13 7 13 -5 1 -20 -7 -33 -17z"/>
<path d="M6944 312 c7 -7 20 -10 29 -6 27 10 20 21 -13 20 -24 -1 -27 -3 -16
-14z"/>
<path d="M5 300 c3 -5 8 -10 11 -10 2 0 4 5 4 10 0 6 -5 10 -11 10 -5 0 -7 -4
-4 -10z"/>
<path d="M40 300 c-12 -8 -11 -10 7 -10 12 0 25 5 28 10 8 13 -15 13 -35 0z"/>
<path d="M6840 294 c0 -8 5 -12 10 -9 6 3 10 10 10 16 0 5 -4 9 -10 9 -5 0
-10 -7 -10 -16z"/>
<path d="M7050 290 c0 -5 5 -10 11 -10 5 0 7 5 4 10 -3 6 -8 10 -11 10 -2 0
-4 -4 -4 -10z"/>
<path d="M138 283 c7 -3 16 -2 19 1 4 3 -2 6 -13 5 -11 0 -14 -3 -6 -6z"/>
<path d="M6890 279 c0 -5 5 -7 10 -4 6 3 10 8 10 11 0 2 -4 4 -10 4 -5 0 -10
-5 -10 -11z"/>
<path d="M6955 270 c3 -5 8 -10 11 -10 2 0 4 5 4 10 0 6 -5 10 -11 10 -5 0 -7
-4 -4 -10z"/>
<path d="M6847 254 c-13 -13 -7 -24 14 -24 11 0 19 5 17 12 -5 14 -22 21 -31
12z"/>
<path d="M6451 234 c0 -11 3 -14 6 -6 3 7 2 16 -1 19 -3 4 -6 -2 -5 -13z"/>
<path d="M6555 240 c-4 -7 -1 -16 6 -21 17 -10 26 8 11 23 -6 6 -12 6 -17 -2z"/>
<path d="M6915 201 c-6 -11 9 -23 19 -14 9 9 7 23 -3 23 -6 0 -12 -4 -16 -9z"/>
<path d="M6855 140 c3 -5 8 -10 11 -10 2 0 4 5 4 10 0 6 -5 10 -11 10 -5 0 -7
-4 -4 -10z"/>
<path d="M6370 130 c0 -5 5 -10 11 -10 5 0 7 5 4 10 -3 6 -8 10 -11 10 -2 0
-4 -4 -4 -10z"/>
<path d="M7310 110 c0 -5 5 -10 10 -10 6 0 10 5 10 10 0 6 -4 10 -10 10 -5 0
-10 -4 -10 -10z"/>
<path d="M5876 25 c-3 -9 0 -15 9 -15 16 0 20 16 6 24 -5 3 -11 -1 -15 -9z"/>
</g>
</svg>
